Raleway-Bold-Italic-OTF.ufo
<glyph name="ampersand" format="1">
  <advance width="697"/>
  <unicode hex="0026"/>
  <outline>
    <contour>
      <point x="445" y="0" type="line"/>
      <point x="616" y="0" type="line"/>
      <point x="497" y="170" type="line"/>
      <point x="528" y="213"/>
      <point x="555" y="263"/>
      <point x="575" y="320" type="curve"/>
      <point x="656" y="320" type="line"/>
      <point x="671" y="416" type="line"/>
      <point x="491" y="416" type="line"/>
      <point x="481" y="355"/>
      <point x="462" y="301"/>
      <point x="438" y="255" type="curve"/>
      <point x="321" y="425" type="line" smooth="yes"/>
      <point x="276" y="491"/>
      <point x="259" y="517"/>
      <point x="259" y="544" type="curve" smooth="yes"/>
      <point x="259" y="587"/>
      <point x="300" y="620"/>
      <point x="344" y="620" type="curve" smooth="yes"/>
      <point x="383" y="620"/>
      <point x="420" y="590"/>
      <point x="435" y="540" type="curve"/>
      <point x="528" y="592" type="line"/>
      <point x="504" y="676"/>
      <point x="435" y="719"/>
      <point x="356" y="719" type="curve" smooth="yes"/>
      <point x="239" y="719"/>
      <point x="134" y="635"/>
      <point x="134" y="522" type="curve" smooth="yes"/>
      <point x="134" y="480"/>
      <point x="148" y="442"/>
      <point x="182" y="389" type="curve"/>
      <point x="92" y="334"/>
      <point x="15" y="270"/>
      <point x="15" y="164" type="curve" smooth="yes"/>
      <point x="15" y="69"/>
      <point x="80" y="-10"/>
      <point x="196" y="-10" type="curve" smooth="yes"/>
      <point x="263" y="-10"/>
      <point x="335" y="17"/>
      <point x="399" y="67" type="curve"/>
    </contour>
    <contour>
      <point x="231" y="93" type="curve" smooth="yes"/>
      <point x="183" y="93"/>
      <point x="145" y="123"/>
      <point x="145" y="179" type="curve" smooth="yes"/>
      <point x="145" y="229"/>
      <point x="176" y="265"/>
      <point x="239" y="303" type="curve"/>
      <point x="349" y="141" type="line"/>
      <point x="311" y="110"/>
      <point x="270" y="93"/>
    </contour>
  </outline>
</glyph>
<glyph name="five" format="1">
  <advance width="533"/>
  <unicode hex="0035"/>
  <outline>
    <contour>
      <point x="154" y="-149" type="curve" smooth="yes"/>
      <point x="320" y="-149"/>
      <point x="461" y="-28"/>
      <point x="461" y="137" type="curve" smooth="yes"/>
      <point x="461" y="245"/>
      <point x="391" y="319"/>
      <point x="282" y="319" type="curve" smooth="yes"/>
      <point x="241" y="319"/>
      <point x="210" y="307"/>
      <point x="194" y="290" type="curve"/>
      <point x="252" y="449" type="line"/>
      <point x="488" y="449" type="line"/>
      <point x="514" y="571" type="line"/>
      <point x="181" y="571" type="line"/>
      <point x="153" y="505"/>
      <point x="47" y="230"/>
      <point x="13" y="148" type="curve"/>
      <point x="130" y="148" type="line"/>
      <point x="157" y="183"/>
      <point x="198" y="204"/>
      <point x="238" y="204" type="curve" smooth="yes"/>
      <point x="289" y="204"/>
      <point x="321" y="167"/>
      <point x="321" y="113" type="curve" smooth="yes"/>
      <point x="321" y="31"/>
      <point x="257" y="-31"/>
      <point x="180" y="-31" type="curve" smooth="yes"/>
      <point x="125" y="-31"/>
      <point x="77" y="2"/>
      <point x="53" y="54" type="curve"/>
      <point x="-41" y="-26" type="line"/>
      <point x="-17" y="-102"/>
      <point x="57" y="-149"/>
    </contour>
  </outline>
</glyph>
<glyph name="greater" format="1">
  <advance width="550"/>
  <unicode hex="003E"/>
  <outline>
    <contour>
      <point x="502" y="288" type="line"/>
      <point x="80" y="543" type="line"/>
      <point x="80" y="401" type="line"/>
      <point x="307" y="259" type="line"/>
      <point x="80" y="123" type="line"/>
      <point x="80" y="-27" type="line"/>
      <point x="502" y="223" type="line"/>
    </contour>
  </outline>
</glyph>
<glyph name="question" format="1">
  <advance width="471"/>
  <unicode hex="003F"/>
  <outline>
    <contour>
      <point x="211" y="233" type="line"/>
      <point x="225" y="301"/>
      <point x="289" y="321"/>
      <point x="347" y="354" type="curve" smooth="yes"/>
      <point x="424" y="397"/>
      <point x="485" y="445"/>
      <point x="485" y="563" type="curve" smooth="yes"/>
      <point x="485" y="672"/>
      <point x="406" y="719"/>
      <point x="323" y="719" type="curve" smooth="yes"/>
      <point x="235" y="719"/>
      <point x="147" y="672"/>
      <point x="96" y="590" type="curve"/>
      <point x="171" y="530" type="line"/>
      <point x="198" y="566"/>
      <point x="241" y="610"/>
      <point x="295" y="610" type="curve" smooth="yes"/>
      <point x="334" y="610"/>
      <point x="365" y="585"/>
      <point x="365" y="541" type="curve" smooth="yes"/>
      <point x="365" y="464"/>
      <point x="290" y="428"/>
      <point x="211" y="389" type="curve" smooth="yes"/>
      <point x="138" y="353"/>
      <point x="114" y="298"/>
      <point x="101" y="233" type="curve"/>
    </contour>
    <contour>
      <point x="164" y="0" type="line"/>
      <point x="193" y="138" type="line"/>
      <point x="83" y="138" type="line"/>
      <point x="54" y="0" type="line"/>
    </contour>
  </outline>
</glyph>
<glyph name="F" format="1">
  <advance width="556"/>
  <unicode hex="0046"/>
  <outline>
    <contour>
      <point x="10" y="0" type="line"/>
      <point x="147" y="0" type="line"/>
      <point x="210" y="294" type="line"/>
      <point x="472" y="294" type="line"/>
      <point x="496" y="406" type="line"/>
      <point x="234" y="406" type="line"/>
      <point x="272" y="589" type="line"/>
      <point x="589" y="589" type="line"/>
      <point x="615" y="710" type="line"/>
      <point x="161" y="710" type="line"/>
    </contour>
  </outline>
</glyph>
<glyph name="L" format="1">
  <advance width="561"/>
  <unicode hex="004C"/>
  <outline>
    <contour>
      <point x="226" y="708" type="move" name="top"/>
    </contour>
    <contour>
      <point x="259" y="0" type="move" name="bottom"/>
    </contour>
    <contour>
      <point x="10" y="0" type="line"/>
      <point x="487" y="0" type="line"/>
      <point x="512" y="121" type="line"/>
      <point x="173" y="121" type="line"/>
      <point x="298" y="710" type="line"/>
      <point x="161" y="710" type="line"/>
    </contour>
  </outline>
</glyph>
<glyph name="Q" format="1">
  <advance width="728"/>
  <unicode hex="0051"/>
  <outline>
    <contour>
      <point x="506" y="0" type="line"/>
      <point x="637" y="0" type="line"/>
      <point x="567" y="106" type="line"/>
      <point x="656" y="186"/>
      <point x="714" y="301"/>
      <point x="714" y="418" type="curve" smooth="yes"/>
      <point x="714" y="571"/>
      <point x="622" y="715"/>
      <point x="454" y="715" type="curve" smooth="yes"/>
      <point x="236" y="715"/>
      <point x="36" y="506"/>
      <point x="36" y="290" type="curve" smooth="yes"/>
      <point x="36" y="136"/>
      <point x="130" y="-5"/>
      <point x="298" y="-5" type="curve" smooth="yes"/>
      <point x="361" y="-5"/>
      <point x="423" y="12"/>
      <point x="478" y="42" type="curve"/>
    </contour>
    <contour>
      <point x="326" y="117" type="curve" smooth="yes"/>
      <point x="226" y="117"/>
      <point x="177" y="203"/>
      <point x="177" y="301" type="curve" smooth="yes"/>
      <point x="177" y="436"/>
      <point x="279" y="593"/>
      <point x="426" y="593" type="curve" smooth="yes"/>
      <point x="524" y="593"/>
      <point x="574" y="507"/>
      <point x="574" y="408" type="curve" smooth="yes"/>
      <point x="574" y="339"/>
      <point x="547" y="264"/>
      <point x="501" y="207" type="curve"/>
      <point x="465" y="263" type="line"/>
      <point x="335" y="263" type="line"/>
      <point x="416" y="138" type="line"/>
      <point x="388" y="125"/>
      <point x="358" y="117"/>
    </contour>
  </outline>
</glyph>
<glyph name="T" format="1">
  <advance width="592"/>
  <unicode hex="0054"/>
  <outline>
    <contour>
      <point x="382" y="708" type="move" name="top"/>
    </contour>
    <contour>
      <point x="231" y="0" type="move" name="bottom"/>
    </contour>
    <contour>
      <point x="163" y="0" type="line"/>
      <point x="301" y="0" type="line"/>
      <point x="426" y="589" type="line"/>
      <point x="638" y="589" type="line"/>
      <point x="664" y="710" type="line"/>
      <point x="101" y="710" type="line"/>
      <point x="76" y="589" type="line"/>
      <point x="289" y="589" type="line"/>
    </contour>
  </outline>
</glyph>
<glyph name="U" format="1">
  <advance width="720"/>
  <unicode hex="0055"/>
  <outline>
    <contour>
      <point x="387" y="708" type="move" name="top"/>
    </contour>
    <contour>
      <point x="305" y="0" type="move" name="bottom"/>
    </contour>
    <contour>
      <point x="295" y="-5" type="curve" smooth="yes"/>
      <point x="503" y="-5"/>
      <point x="625" y="154"/>
      <point x="666" y="348" type="curve" smooth="yes"/>
      <point x="743" y="710" type="line"/>
      <point x="606" y="710" type="line"/>
      <point x="529" y="348" type="line" smooth="yes"/>
      <point x="504" y="232"/>
      <point x="441" y="117"/>
      <point x="320" y="117" type="curve" smooth="yes"/>
      <point x="232" y="117"/>
      <point x="201" y="179"/>
      <point x="201" y="259" type="curve" smooth="yes"/>
      <point x="201" y="287"/>
      <point x="204" y="317"/>
      <point x="211" y="348" type="curve" smooth="yes"/>
      <point x="288" y="710" type="line"/>
      <point x="151" y="710" type="line"/>
      <point x="74" y="348" type="line" smooth="yes"/>
      <point x="65" y="308"/>
      <point x="61" y="271"/>
      <point x="61" y="235" type="curve" smooth="yes"/>
      <point x="61" y="100"/>
      <point x="125" y="-5"/>
    </contour>
  </outline>
</glyph>
<glyph name="asciicircum" format="1">
  <advance width="589"/>
  <unicode hex="005E"/>
  <outline>
    <contour>
      <point x="156" y="303" type="line"/>
      <point x="302" y="597" type="line"/>
      <point x="445" y="303" type="line"/>
      <point x="555" y="303" type="line"/>
      <point x="358" y="710" type="line"/>
      <point x="246" y="710" type="line"/>
      <point x="48" y="303" type="line"/>
    </contour>
  </outline>
</glyph>
<glyph name="m" format="1">
  <advance width="892"/>
  <unicode hex="006D"/>
  <outline>
    <contour>
      <point x="-4" y="0" type="line"/>
      <point x="130" y="0" type="line"/>
      <point x="195" y="306" type="line"/>
      <point x="227" y="369"/>
      <point x="284" y="415"/>
      <point x="332" y="415" type="curve" smooth="yes"/>
      <point x="366" y="415"/>
      <point x="386" y="394"/>
      <point x="386" y="348" type="curve" smooth="yes"/>
      <point x="386" y="332"/>
      <point x="384" y="315"/>
      <point x="380" y="294" type="curve" smooth="yes"/>
      <point x="318" y="0" type="line"/>
      <point x="452" y="0" type="line"/>
      <point x="516" y="305" type="line"/>
      <point x="548" y="369"/>
      <point x="605" y="415"/>
      <point x="654" y="415" type="curve" smooth="yes"/>
      <point x="687" y="415"/>
      <point x="708" y="393"/>
      <point x="708" y="347" type="curve" smooth="yes"/>
      <point x="708" y="332"/>
      <point x="705" y="314"/>
      <point x="701" y="294" type="curve" smooth="yes"/>
      <point x="639" y="0" type="line"/>
      <point x="773" y="0" type="line"/>
      <point x="843" y="327" type="line" smooth="yes"/>
      <point x="851" y="363"/>
      <point x="853" y="390"/>
      <point x="853" y="411" type="curve" smooth="yes"/>
      <point x="853" y="480"/>
      <point x="826" y="533"/>
      <point x="736" y="533" type="curve" smooth="yes"/>
      <point x="660" y="533"/>
      <point x="586" y="494"/>
      <point x="531" y="422" type="curve"/>
      <point x="528" y="489"/>
      <point x="494" y="533"/>
      <point x="411" y="533" type="curve" smooth="yes"/>
      <point x="335" y="533"/>
      <point x="257" y="493"/>
      <point x="207" y="427" type="curve"/>
      <point x="228" y="524" type="line"/>
      <point x="107" y="524" type="line"/>
    </contour>
  </outline>
</glyph>
<glyph name="bar" format="1">
  <advance width="327"/>
  <unicode hex="007C"/>
  <outline>
    <contour>
      <point x="226" y="-130" type="line"/>
      <point x="226" y="775" type="line"/>
      <point x="112" y="775" type="line"/>
      <point x="112" y="-130" type="line"/>
    </contour>
  </outline>
</glyph>
<glyph name="sterling" format="1">
  <advance width="525"/>
  <unicode hex="00A3"/>
  <outline>
    <contour>
      <point x="52" y="280" type="line"/>
      <point x="146" y="280" type="line"/>
      <point x="136" y="212"/>
      <point x="88" y="150"/>
      <point x="5" y="87" type="curve"/>
      <point x="14" y="-8" type="line"/>
      <point x="57" y="5"/>
      <point x="108" y="14"/>
      <point x="141" y="14" type="curve" smooth="yes"/>
      <point x="203" y="14"/>
      <point x="255" y="-15"/>
      <point x="313" y="-15" type="curve" smooth="yes"/>
      <point x="349" y="-15"/>
      <point x="395" y="-3"/>
      <point x="429" y="15" type="curve"/>
      <point x="418" y="115" type="line"/>
      <point x="388" y="104"/>
      <point x="367" y="99"/>
      <point x="344" y="99" type="curve" smooth="yes"/>
      <point x="301" y="99"/>
      <point x="265" y="116"/>
      <point x="219" y="116" type="curve" smooth="yes"/>
      <point x="198" y="116"/>
      <point x="174" y="113"/>
      <point x="145" y="104" type="curve"/>
      <point x="223" y="175"/>
      <point x="254" y="224"/>
      <point x="263" y="280" type="curve"/>
      <point x="415" y="280" type="line"/>
      <point x="437" y="381" type="line"/>
      <point x="261" y="381" type="line"/>
      <point x="252" y="426"/>
      <point x="238" y="466"/>
      <point x="238" y="503" type="curve" smooth="yes"/>
      <point x="238" y="562"/>
      <point x="283" y="606"/>
      <point x="336" y="606" type="curve" smooth="yes"/>
      <point x="381" y="606"/>
      <point x="429" y="574"/>
      <point x="450" y="528" type="curve"/>
      <point x="537" y="610" type="line"/>
      <point x="504" y="675"/>
      <point x="438" y="715"/>
      <point x="360" y="715" type="curve" smooth="yes"/>
      <point x="237" y="715"/>
      <point x="120" y="621"/>
      <point x="120" y="504" type="curve" smooth="yes"/>
      <point x="120" y="464"/>
      <point x="132" y="423"/>
      <point x="140" y="381" type="curve"/>
      <point x="73" y="381" type="line"/>
    </contour>
  </outline>
</glyph>
<glyph name="guillemotleft" format="1">
  <advance width="629"/>
  <unicode hex="00AB"/>
  <outline>
    <contour>
      <point x="19" y="223" type="line"/>
      <point x="234" y="46" type="line"/>
      <point x="257" y="156" type="line"/>
      <point x="133" y="259" type="line"/>
      <point x="302" y="368" type="line"/>
      <point x="325" y="477" type="line"/>
      <point x="33" y="288" type="line"/>
    </contour>
    <contour>
      <point x="303" y="223" type="line"/>
      <point x="518" y="46" type="line"/>
      <point x="541" y="156" type="line"/>
      <point x="417" y="259" type="line"/>
      <point x="586" y="368" type="line"/>
      <point x="609" y="477" type="line"/>
      <point x="316" y="288" type="line"/>
    </contour>
  </outline>
</glyph>
<glyph name="onehalf" format="1">
  <advance width="869"/>
  <unicode hex="00BD"/>
  <outline>
    <contour>
      <point x="440" y="0" type="curve"/>
      <point x="767" y="0" type="line"/>
      <point x="783" y="78" type="line"/>
      <point x="581" y="78" type="line"/>
      <point x="588" y="109"/>
      <point x="617" y="139"/>
      <point x="680" y="160" type="curve" smooth="yes"/>
      <point x="766" y="188"/>
      <point x="831" y="227"/>
      <point x="831" y="321" type="curve" smooth="yes"/>
      <point x="831" y="386"/>
      <point x="786" y="426"/>
      <point x="702" y="426" type="curve" smooth="yes"/>
      <point x="611" y="426"/>
      <point x="541" y="384"/>
      <point x="516" y="357" type="curve"/>
      <point x="553" y="299" type="line"/>
      <point x="579" y="322"/>
      <point x="622" y="349"/>
      <point x="675" y="349" type="curve" smooth="yes"/>
      <point x="718" y="349"/>
      <point x="742" y="333"/>
      <point x="742" y="304" type="curve" smooth="yes"/>
      <point x="742" y="244"/>
      <point x="669" y="225"/>
      <point x="601" y="198" type="curve" smooth="yes"/>
      <point x="502" y="158"/>
      <point x="462" y="109"/>
    </contour>
    <contour>
      <point x="110" y="-7" type="line"/>
      <point x="438" y="340" type="line"/>
      <point x="767" y="664" type="line"/>
      <point x="718" y="718" type="line"/>
      <point x="399" y="376" type="line"/>
      <point x="62" y="47" type="line"/>
    </contour>
    <contour>
      <point x="227" y="384" type="line"/>
      <point x="301" y="731" type="line"/>
      <point x="221" y="731" type="line"/>
      <point x="220" y="728"/>
      <point x="159" y="674"/>
      <point x="119" y="674" type="curve"/>
      <point x="102" y="594" type="line"/>
      <point x="132" y="594"/>
      <point x="185" y="627"/>
      <point x="203" y="645" type="curve"/>
      <point x="148" y="384" type="line"/>
      <point x="73" y="384" type="line"/>
      <point x="56" y="306" type="line"/>
      <point x="277" y="306" type="line"/>
      <point x="294" y="384" type="line"/>
    </contour>
  </outline>
</glyph>
<glyph name="Aacute" format="1">
  <advance width="645"/>
  <unicode hex="00C1"/>
  <outline>
    <contour>
      <point x="-53" y="0" type="line"/>
      <point x="89" y="0" type="line"/>
      <point x="185" y="177" type="line"/>
      <point x="414" y="177" type="line"/>
      <point x="436" y="0" type="line"/>
      <point x="578" y="0" type="line"/>
      <point x="475" y="710" type="line"/>
      <point x="352" y="710" type="line"/>
    </contour>
    <contour>
      <point x="228" y="274" type="line"/>
      <point x="380" y="553" type="line"/>
      <point x="411" y="274" type="line"/>
    </contour>
    <contour>
      <point x="558" y="916" type="line"/>
      <point x="434" y="916" type="line"/>
      <point x="358" y="797" type="line"/>
      <point x="445" y="780" type="line"/>
    </contour>
  </outline>
</glyph>
<glyph name="Atilde" format="1">
  <advance width="645"/>
  <unicode hex="00C3"/>
  <outline>
    <contour>
      <point x="-53" y="0" type="line"/>
      <point x="89" y="0" type="line"/>
      <point x="185" y="177" type="line"/>
      <point x="414" y="177" type="line"/>
      <point x="436" y="0" type="line"/>
      <point x="578" y="0" type="line"/>
      <point x="475" y="710" type="line"/>
      <point x="352" y="710" type="line"/>
    </contour>
    <contour>
      <point x="228" y="274" type="line"/>
      <point x="380" y="553" type="line"/>
      <point x="411" y="274" type="line"/>
    </contour>
    <contour>
      <point x="488" y="788" type="curve" smooth="yes"/>
      <point x="578" y="788"/>
      <point x="630" y="897"/>
      <point x="634" y="916" type="curve"/>
      <point x="561" y="916" type="line"/>
      <point x="560" y="912"/>
      <point x="545" y="866"/>
      <point x="500" y="866" type="curve" smooth="yes"/>
      <point x="455" y="866"/>
      <point x="443" y="913"/>
      <point x="385" y="913" type="curve" smooth="yes"/>
      <point x="299" y="913"/>
      <point x="249" y="810"/>
      <point x="244" y="785" type="curve"/>
      <point x="318" y="785" type="line"/>
      <point x="318" y="788"/>
      <point x="330" y="833"/>
      <point x="372" y="833" type="curve" smooth="yes"/>
      <point x="414" y="833"/>
      <point x="431" y="788"/>
    </contour>
  </outline>
</glyph>
<glyph name="Ccedilla" format="1">
  <advance width="656"/>
  <unicode hex="00C7"/>
  <outline>
    <contour>
      <point x="148" y="-176" type="line"/>
      <point x="171" y="-187"/>
      <point x="204" y="-196"/>
      <point x="246" y="-196" type="curve" smooth="yes"/>
      <point x="343" y="-196"/>
      <point x="391" y="-151"/>
      <point x="391" y="-94" type="curve" smooth="yes"/>
      <point x="391" y="-55"/>
      <point x="361" y="-38"/>
      <point x="323" y="-38" type="curve" smooth="yes"/>
      <point x="313" y="-38"/>
      <point x="301" y="-39"/>
      <point x="292" y="-42" type="curve"/>
      <point x="323" y="-4" type="line"/>
      <point x="427" y="4"/>
      <point x="549" y="62"/>
      <point x="608" y="159" type="curve"/>
      <point x="509" y="224" type="line"/>
      <point x="462" y="147"/>
      <point x="384" y="116"/>
      <point x="324" y="116" type="curve" smooth="yes"/>
      <point x="229" y="116"/>
      <point x="175" y="203"/>
      <point x="175" y="304" type="curve" smooth="yes"/>
      <point x="175" y="432"/>
      <point x="272" y="592"/>
      <point x="422" y="592" type="curve" smooth="yes"/>
      <point x="482" y="592"/>
      <point x="546" y="566"/>
      <point x="562" y="486" type="curve"/>
      <point x="683" y="559" type="line"/>
      <point x="659" y="651"/>
      <point x="577" y="714"/>
      <point x="452" y="714" type="curve" smooth="yes"/>
      <point x="212" y="714"/>
      <point x="35" y="492"/>
      <point x="35" y="296" type="curve" smooth="yes"/>
      <point x="35" y="150"/>
      <point x="118" y="11"/>
      <point x="265" y="-4" type="curve"/>
      <point x="205" y="-92" type="line"/>
      <point x="221" y="-88"/>
      <point x="257" y="-80"/>
      <point x="283" y="-80" type="curve" smooth="yes"/>
      <point x="310" y="-80"/>
      <point x="327" y="-87"/>
      <point x="327" y="-107" type="curve" smooth="yes"/>
      <point x="327" y="-135"/>
      <point x="302" y="-146"/>
      <point x="266" y="-146" type="curve" smooth="yes"/>
      <point x="232" y="-146"/>
      <point x="198" y="-136"/>
      <point x="185" y="-127" type="curve"/>
    </contour>
  </outline>
</glyph>
<glyph name="Egrave" format="1">
  <advance width="578"/>
  <unicode hex="00C8"/>
  <outline>
    <contour>
      <point x="10" y="0" type="line"/>
      <point x="479" y="0" type="line"/>
      <point x="505" y="121" type="line"/>
      <point x="173" y="121" type="line"/>
      <point x="212" y="306" type="line"/>
      <point x="491" y="306" type="line"/>
      <point x="515" y="418" type="line"/>
      <point x="236" y="418" type="line"/>
      <point x="272" y="589" type="line"/>
      <point x="596" y="589" type="line"/>
      <point x="621" y="710" type="line"/>
      <point x="161" y="710" type="line"/>
    </contour>
    <contour>
      <point x="381" y="780" type="line"/>
      <point x="474" y="798" type="line"/>
      <point x="448" y="917" type="line"/>
      <point x="325" y="917" type="line"/>
    </contour>
  </outline>
</glyph>
<glyph name="Eth" format="1">
  <advance width="698"/>
  <unicode hex="00D0"/>
  <outline>
    <contour>
      <point x="36" y="307" type="line"/>
      <point x="80" y="307" type="line"/>
      <point x="15" y="0" type="line"/>
      <point x="262" y="0" type="line" smooth="yes"/>
      <point x="502" y="0"/>
      <point x="681" y="185"/>
      <point x="681" y="435" type="curve" smooth="yes"/>
      <point x="681" y="589"/>
      <point x="596" y="710"/>
      <point x="413" y="710" type="curve" smooth="yes"/>
      <point x="166" y="710" type="line"/>
      <point x="101" y="407" type="line"/>
      <point x="57" y="407" type="line"/>
    </contour>
    <contour>
      <point x="178" y="121" type="line"/>
      <point x="217" y="307" type="line"/>
      <point x="347" y="307" type="line"/>
      <point x="369" y="407" type="line"/>
      <point x="239" y="407" type="line"/>
      <point x="278" y="589" type="line"/>
      <point x="387" y="589" type="line" smooth="yes"/>
      <point x="487" y="589"/>
      <point x="540" y="518"/>
      <point x="540" y="415" type="curve" smooth="yes"/>
      <point x="540" y="259"/>
      <point x="440" y="121"/>
      <point x="288" y="121" type="curve" smooth="yes"/>
    </contour>
  </outline>
</glyph>
<glyph name="Oacute" format="1">
  <advance width="729"/>
  <unicode hex="00D3"/>
  <outline>
    <contour>
      <point x="607" y="916" type="line"/>
      <point x="483" y="916" type="line"/>
      <point x="407" y="797" type="line"/>
      <point x="494" y="780" type="line"/>
    </contour>
    <contour>
      <point x="299" y="-5" type="curve" smooth="yes"/>
      <point x="517" y="-5"/>
      <point x="714" y="204"/>
      <point x="714" y="418" type="curve" smooth="yes"/>
      <point x="714" y="571"/>
      <point x="623" y="715"/>
      <point x="455" y="715" type="curve" smooth="yes"/>
      <point x="236" y="715"/>
      <point x="37" y="506"/>
      <point x="37" y="290" type="curve" smooth="yes"/>
      <point x="37" y="136"/>
      <point x="130" y="-5"/>
    </contour>
    <contour>
      <point x="326" y="117" type="curve" smooth="yes"/>
      <point x="226" y="117"/>
      <point x="177" y="203"/>
      <point x="177" y="301" type="curve" smooth="yes"/>
      <point x="177" y="436"/>
      <point x="279" y="592"/>
      <point x="426" y="592" type="curve" smooth="yes"/>
      <point x="525" y="592"/>
      <point x="574" y="507"/>
      <point x="574" y="408" type="curve" smooth="yes"/>
      <point x="574" y="275"/>
      <point x="473" y="117"/>
    </contour>
  </outline>
</glyph>
<glyph name="atilde" format="1">
  <advance width="624"/>
  <unicode hex="00E3"/>
  <outline>
    <contour>
      <point x="201" y="-10" type="curve" smooth="yes"/>
      <point x="270" y="-10"/>
      <point x="344" y="25"/>
      <point x="394" y="91" type="curve"/>
      <point x="390" y="74"/>
      <point x="388" y="62"/>
      <point x="388" y="53" type="curve" smooth="yes"/>
      <point x="388" y="13"/>
      <point x="417" y="-7"/>
      <point x="464" y="-7" type="curve" smooth="yes"/>
      <point x="477" y="-7"/>
      <point x="495" y="-4"/>
      <point x="519" y="0" type="curve"/>
      <point x="543" y="114" type="line"/>
      <point x="527" y="115"/>
      <point x="519" y="121"/>
      <point x="519" y="136" type="curve" smooth="yes"/>
      <point x="519" y="141"/>
      <point x="520" y="147"/>
      <point x="522" y="154" type="curve" smooth="yes"/>
      <point x="600" y="522" type="line"/>
      <point x="466" y="522" type="line"/>
      <point x="446" y="432" type="line"/>
      <point x="427" y="491"/>
      <point x="374" y="533"/>
      <point x="302" y="533" type="curve" smooth="yes"/>
      <point x="150" y="533"/>
      <point x="15" y="378"/>
      <point x="15" y="205" type="curve" smooth="yes"/>
      <point x="15" y="84"/>
      <point x="85" y="-10"/>
    </contour>
    <contour>
      <point x="261" y="104" type="curve" smooth="yes"/>
      <point x="196" y="104"/>
      <point x="156" y="157"/>
      <point x="156" y="226" type="curve" smooth="yes"/>
      <point x="156" y="322"/>
      <point x="234" y="419"/>
      <point x="320" y="419" type="curve" smooth="yes"/>
      <point x="370" y="419"/>
      <point x="414" y="375"/>
      <point x="422" y="317" type="curve"/>
      <point x="396" y="192" type="line"/>
      <point x="367" y="141"/>
      <point x="307" y="104"/>
    </contour>
    <contour>
      <point x="394" y="602" type="curve" smooth="yes"/>
      <point x="484" y="602"/>
      <point x="536" y="711"/>
      <point x="540" y="730" type="curve"/>
      <point x="467" y="730" type="line"/>
      <point x="466" y="726"/>
      <point x="451" y="680"/>
      <point x="406" y="680" type="curve" smooth="yes"/>
      <point x="361" y="680"/>
      <point x="349" y="727"/>
      <point x="291" y="727" type="curve" smooth="yes"/>
      <point x="205" y="727"/>
      <point x="155" y="624"/>
      <point x="150" y="599" type="curve"/>
      <point x="224" y="599" type="line"/>
      <point x="224" y="602"/>
      <point x="236" y="647"/>
      <point x="278" y="647" type="curve" smooth="yes"/>
      <point x="320" y="647"/>
      <point x="337" y="602"/>
    </contour>
  </outline>
</glyph>
<glyph name="otilde" format="1">
  <advance width="586"/>
  <unicode hex="00F5"/>
  <outline>
    <contour>
      <point x="227" y="-10" type="curve" smooth="yes"/>
      <point x="417" y="-10"/>
      <point x="554" y="150"/>
      <point x="554" y="314" type="curve" smooth="yes"/>
      <point x="554" y="434"/>
      <point x="481" y="533"/>
      <point x="342" y="533" type="curve" smooth="yes"/>
      <point x="152" y="533"/>
      <point x="15" y="374"/>
      <point x="15" y="208" type="curve" smooth="yes"/>
      <point x="15" y="90"/>
      <point x="87" y="-10"/>
    </contour>
    <contour>
      <point x="251" y="104" type="curve" smooth="yes"/>
      <point x="192" y="104"/>
      <point x="154" y="154"/>
      <point x="154" y="225" type="curve" smooth="yes"/>
      <point x="154" y="331"/>
      <point x="235" y="419"/>
      <point x="318" y="419" type="curve" smooth="yes"/>
      <point x="377" y="419"/>
      <point x="415" y="369"/>
      <point x="415" y="298" type="curve" smooth="yes"/>
      <point x="415" y="191"/>
      <point x="334" y="104"/>
    </contour>
    <contour>
      <point x="417" y="602" type="curve" smooth="yes"/>
      <point x="507" y="602"/>
      <point x="559" y="711"/>
      <point x="563" y="730" type="curve"/>
      <point x="490" y="730" type="line"/>
      <point x="489" y="726"/>
      <point x="474" y="680"/>
      <point x="429" y="680" type="curve" smooth="yes"/>
      <point x="384" y="680"/>
      <point x="372" y="727"/>
      <point x="314" y="727" type="curve" smooth="yes"/>
      <point x="228" y="727"/>
      <point x="178" y="624"/>
      <point x="173" y="599" type="curve"/>
      <point x="247" y="599" type="line"/>
      <point x="247" y="602"/>
      <point x="259" y="647"/>
      <point x="301" y="647" type="curve" smooth="yes"/>
      <point x="343" y="647"/>
      <point x="360" y="602"/>
    </contour>
  </outline>
</glyph>
<glyph name="odieresis" format="1">
  <advance width="586"/>
  <unicode hex="00F6"/>
  <outline>
    <contour>
      <point x="322" y="604" type="line"/>
      <point x="348" y="723" type="line"/>
      <point x="237" y="723" type="line"/>
      <point x="211" y="604" type="line"/>
    </contour>
    <contour>
      <point x="510" y="604" type="line"/>
      <point x="534" y="723" type="line"/>
      <point x="424" y="723" type="line"/>
      <point x="399" y="604" type="line"/>
    </contour>
    <contour>
      <point x="227" y="-10" type="curve" smooth="yes"/>
      <point x="417" y="-10"/>
      <point x="554" y="150"/>
      <point x="554" y="314" type="curve" smooth="yes"/>
      <point x="554" y="434"/>
      <point x="481" y="533"/>
      <point x="342" y="533" type="curve" smooth="yes"/>
      <point x="152" y="533"/>
      <point x="15" y="374"/>
      <point x="15" y="208" type="curve" smooth="yes"/>
      <point x="15" y="90"/>
      <point x="87" y="-10"/>
    </contour>
    <contour>
      <point x="251" y="104" type="curve" smooth="yes"/>
      <point x="192" y="104"/>
      <point x="154" y="154"/>
      <point x="154" y="225" type="curve" smooth="yes"/>
      <point x="154" y="331"/>
      <point x="235" y="419"/>
      <point x="318" y="419" type="curve" smooth="yes"/>
      <point x="377" y="419"/>
      <point x="415" y="369"/>
      <point x="415" y="298" type="curve" smooth="yes"/>
      <point x="415" y="191"/>
      <point x="334" y="104"/>
    </contour>
  </outline>
</glyph>
<glyph name="ydieresis" format="1">
  <advance width="520"/>
  <unicode hex="00FF"/>
  <outline>
    <contour>
      <point x="-28" y="-229" type="line"/>
      <point x="89" y="-227"/>
      <point x="164" y="-176"/>
      <point x="257" y="-26" type="curve" smooth="yes"/>
      <point x="337" y="103" type="line" smooth="yes"/>
      <point x="469" y="316"/>
      <point x="507" y="395"/>
      <point x="543" y="524" type="curve"/>
      <point x="413" y="524" type="line"/>
      <point x="385" y="403"/>
      <point x="345" y="308"/>
      <point x="263" y="172" type="curve" smooth="yes"/>
      <point x="229" y="116" type="line"/>
      <point x="184" y="524" type="line"/>
      <point x="47" y="524" type="line"/>
      <point x="134" y="-11" type="line"/>
      <point x="105" y="-50" type="line" smooth="yes"/>
      <point x="64" y="-106"/>
      <point x="36" y="-119"/>
      <point x="-44" y="-126" type="curve"/>
    </contour>
    <contour>
      <point x="275" y="604" type="line"/>
      <point x="301" y="723" type="line"/>
      <point x="190" y="723" type="line"/>
      <point x="164" y="604" type="line"/>
    </contour>
    <contour>
      <point x="463" y="604" type="line"/>
      <point x="487" y="723" type="line"/>
      <point x="377" y="723" type="line"/>
      <point x="352" y="604" type="line"/>
    </contour>
  </outline>
</glyph>
<glyph name="Amacron" format="1">
  <advance width="645"/>
  <unicode hex="0100"/>
  <outline>
    <contour>
      <point x="-53" y="0" type="line"/>
      <point x="89" y="0" type="line"/>
      <point x="185" y="177" type="line"/>
      <point x="414" y="177" type="line"/>
      <point x="436" y="0" type="line"/>
      <point x="578" y="0" type="line"/>
      <point x="475" y="710" type="line"/>
      <point x="352" y="710" type="line"/>
    </contour>
    <contour>
      <point x="228" y="274" type="line"/>
      <point x="380" y="553" type="line"/>
      <point x="411" y="274" type="line"/>
    </contour>
    <contour>
      <point x="575" y="818" type="line"/>
      <point x="593" y="901" type="line"/>
      <point x="307" y="901" type="line"/>
      <point x="289" y="818" type="line"/>
    </contour>
  </outline>
</glyph>
<glyph name="Cacute" format="1">
  <advance width="658"/>
  <unicode hex="0106"/>
  <outline>
    <contour>
      <point x="611" y="916" type="line"/>
      <point x="487" y="916" type="line"/>
      <point x="411" y="797" type="line"/>
      <point x="498" y="780" type="line"/>
    </contour>
    <contour>
      <point x="296" y="-6" type="curve" smooth="yes"/>
      <point x="406" y="-6"/>
      <point x="546" y="53"/>
      <point x="610" y="159" type="curve"/>
      <point x="511" y="224" type="line"/>
      <point x="464" y="147"/>
      <point x="386" y="116"/>
      <point x="326" y="116" type="curve" smooth="yes"/>
      <point x="231" y="116"/>
      <point x="177" y="203"/>
      <point x="177" y="304" type="curve" smooth="yes"/>
      <point x="177" y="432"/>
      <point x="274" y="592"/>
      <point x="424" y="592" type="curve" smooth="yes"/>
      <point x="484" y="592"/>
      <point x="548" y="566"/>
      <point x="564" y="486" type="curve"/>
      <point x="685" y="559" type="line"/>
      <point x="661" y="651"/>
      <point x="579" y="714"/>
      <point x="454" y="714" type="curve" smooth="yes"/>
      <point x="214" y="714"/>
      <point x="37" y="492"/>
      <point x="37" y="296" type="curve" smooth="yes"/>
      <point x="37" y="141"/>
      <point x="131" y="-6"/>
    </contour>
  </outline>
</glyph>
<glyph name="Ebreve" format="1">
  <advance width="578"/>
  <unicode hex="0114"/>
  <outline>
    <contour>
      <point x="10" y="0" type="line"/>
      <point x="479" y="0" type="line"/>
      <point x="505" y="121" type="line"/>
      <point x="173" y="121" type="line"/>
      <point x="212" y="306" type="line"/>
      <point x="491" y="306" type="line"/>
      <point x="515" y="418" type="line"/>
      <point x="236" y="418" type="line"/>
      <point x="272" y="589" type="line"/>
      <point x="596" y="589" type="line"/>
      <point x="621" y="710" type="line"/>
      <point x="161" y="710" type="line"/>
    </contour>
    <contour>
      <point x="409" y="842" type="curve" smooth="yes"/>
      <point x="384" y="842"/>
      <point x="366" y="866"/>
      <point x="366" y="896" type="curve" smooth="yes"/>
      <point x="366" y="903"/>
      <point x="367" y="909"/>
      <point x="369" y="916" type="curve"/>
      <point x="297" y="916" type="line"/>
      <point x="294" y="905"/>
      <point x="293" y="894"/>
      <point x="293" y="883" type="curve" smooth="yes"/>
      <point x="293" y="823"/>
      <point x="332" y="782"/>
      <point x="397" y="782" type="curve" smooth="yes"/>
      <point x="471" y="782"/>
      <point x="536" y="839"/>
      <point x="553" y="916" type="curve"/>
      <point x="481" y="916" type="line"/>
      <point x="468" y="873"/>
      <point x="437" y="842"/>
    </contour>
  </outline>
</glyph>
<glyph name="hbar" format="1">
  <advance width="582"/>
  <unicode hex="0127"/>
  <outline>
    <contour>
      <point x="62" y="591" type="line"/>
      <point x="121" y="591" type="line"/>
      <point x="-4" y="0" type="line"/>
      <point x="130" y="0" type="line"/>
      <point x="195" y="306" type="line"/>
      <point x="227" y="370"/>
      <point x="294" y="415"/>
      <point x="337" y="415" type="curve" smooth="yes"/>
      <point x="376" y="415"/>
      <point x="398" y="392"/>
      <point x="398" y="343" type="curve" smooth="yes"/>
      <point x="398" y="329"/>
      <point x="396" y="313"/>
      <point x="392" y="294" type="curve" smooth="yes"/>
      <point x="330" y="0" type="line"/>
      <point x="464" y="0" type="line"/>
      <point x="533" y="327" type="line" smooth="yes"/>
      <point x="539" y="355"/>
      <point x="543" y="383"/>
      <point x="543" y="410" type="curve" smooth="yes"/>
      <point x="543" y="479"/>
      <point x="514" y="533"/>
      <point x="420" y="533" type="curve" smooth="yes"/>
      <point x="345" y="533"/>
      <point x="272" y="494"/>
      <point x="220" y="427" type="curve"/>
      <point x="255" y="591" type="line"/>
      <point x="349" y="591" type="line"/>
      <point x="366" y="671" type="line"/>
      <point x="272" y="671" type="line"/>
      <point x="285" y="730" type="line"/>
      <point x="151" y="730" type="line"/>
      <point x="138" y="671" type="line"/>
      <point x="79" y="671" type="line"/>
    </contour>
  </outline>
</glyph>
<glyph name="Itilde" format="1">
  <advance width="285"/>
  <unicode hex="0128"/>
  <outline>
    <contour>
      <point x="10" y="0" type="line"/>
      <point x="147" y="0" type="line"/>
      <point x="298" y="709" type="line"/>
      <point x="161" y="709" type="line"/>
    </contour>
    <contour>
      <point x="311" y="788" type="curve" smooth="yes"/>
      <point x="401" y="788"/>
      <point x="453" y="897"/>
      <point x="457" y="916" type="curve"/>
      <point x="384" y="916" type="line"/>
      <point x="383" y="912"/>
      <point x="368" y="866"/>
      <point x="323" y="866" type="curve" smooth="yes"/>
      <point x="278" y="866"/>
      <point x="266" y="913"/>
      <point x="208" y="913" type="curve" smooth="yes"/>
      <point x="122" y="913"/>
      <point x="72" y="810"/>
      <point x="67" y="785" type="curve"/>
      <point x="141" y="785" type="line"/>
      <point x="141" y="788"/>
      <point x="153" y="833"/>
      <point x="195" y="833" type="curve" smooth="yes"/>
      <point x="237" y="833"/>
      <point x="254" y="788"/>
    </contour>
  </outline>
</glyph>
<glyph name="itilde" format="1">
  <advance width="253"/>
  <unicode hex="0129"/>
  <outline>
    <contour>
      <point x="-4" y="0" type="line"/>
      <point x="130" y="0" type="line"/>
      <point x="241" y="524" type="line"/>
      <point x="107" y="524" type="line"/>
    </contour>
    <contour>
      <point x="251" y="602" type="curve" smooth="yes"/>
      <point x="341" y="602"/>
      <point x="393" y="711"/>
      <point x="397" y="730" type="curve"/>
      <point x="324" y="730" type="line"/>
      <point x="323" y="726"/>
      <point x="308" y="680"/>
      <point x="263" y="680" type="curve" smooth="yes"/>
      <point x="218" y="680"/>
      <point x="206" y="727"/>
      <point x="148" y="727" type="curve" smooth="yes"/>
      <point x="62" y="727"/>
      <point x="12" y="624"/>
      <point x="7" y="599" type="curve"/>
      <point x="81" y="599" type="line"/>
      <point x="81" y="602"/>
      <point x="93" y="647"/>
      <point x="135" y="647" type="curve" smooth="yes"/>
      <point x="177" y="647"/>
      <point x="194" y="602"/>
    </contour>
  </outline>
</glyph>
<glyph name="ibreve" format="1">
  <advance width="253"/>
  <unicode hex="012D"/>
  <outline>
    <contour>
      <point x="-4" y="0" type="line"/>
      <point x="130" y="0" type="line"/>
      <point x="241" y="524" type="line"/>
      <point x="107" y="524" type="line"/>
    </contour>
    <contour>
      <point x="192" y="656" type="curve" smooth="yes"/>
      <point x="167" y="656"/>
      <point x="149" y="680"/>
      <point x="149" y="710" type="curve" smooth="yes"/>
      <point x="149" y="717"/>
      <point x="150" y="723"/>
      <point x="152" y="730" type="curve"/>
      <point x="80" y="730" type="line"/>
      <point x="77" y="719"/>
      <point x="76" y="708"/>
      <point x="76" y="697" type="curve" smooth="yes"/>
      <point x="76" y="637"/>
      <point x="115" y="596"/>
      <point x="180" y="596" type="curve" smooth="yes"/>
      <point x="254" y="596"/>
      <point x="319" y="653"/>
      <point x="336" y="730" type="curve"/>
      <point x="264" y="730" type="line"/>
      <point x="251" y="687"/>
      <point x="220" y="656"/>
    </contour>
  </outline>
</glyph>
<glyph name="Iogonek" format="1">
  <advance width="285"/>
  <unicode hex="012E"/>
  <outline>
    <contour>
      <point x="10" y="0" type="line"/>
      <point x="71" y="0" type="line"/>
      <point x="2" y="-39"/>
      <point x="-32" y="-80"/>
      <point x="-32" y="-120" type="curve" smooth="yes"/>
      <point x="-32" y="-156"/>
      <point x="-1" y="-186"/>
      <point x="65" y="-196" type="curve"/>
      <point x="107" y="-126" type="line"/>
      <point x="72" y="-124"/>
      <point x="55" y="-111"/>
      <point x="55" y="-91" type="curve" smooth="yes"/>
      <point x="55" y="-64"/>
      <point x="84" y="-36"/>
      <point x="147" y="0" type="curve"/>
      <point x="298" y="709" type="line"/>
      <point x="161" y="709" type="line"/>
    </contour>
  </outline>
</glyph>
<glyph name="ij" format="1">
  <advance width="511"/>
  <unicode hex="0133"/>
  <outline>
    <contour>
      <point x="-4" y="0" type="line"/>
      <point x="130" y="0" type="line"/>
      <point x="241" y="524" type="line"/>
      <point x="107" y="524" type="line"/>
    </contour>
    <contour>
      <point x="123" y="597" type="line"/>
      <point x="257" y="597" type="line"/>
      <point x="285" y="730" type="line"/>
      <point x="151" y="730" type="line"/>
    </contour>
    <contour>
      <point x="170" y="-196" type="curve" smooth="yes"/>
      <point x="269" y="-196"/>
      <point x="363" y="-117"/>
      <point x="387" y="-4" type="curve" smooth="yes"/>
      <point x="499" y="524" type="line"/>
      <point x="365" y="524" type="line"/>
      <point x="250" y="-14" type="line" smooth="yes"/>
      <point x="242" y="-53"/>
      <point x="210" y="-80"/>
      <point x="178" y="-80" type="curve" smooth="yes"/>
      <point x="158" y="-80"/>
      <point x="139" y="-73"/>
      <point x="128" y="-58" type="curve"/>
      <point x="52" y="-149" type="line"/>
      <point x="80" y="-181"/>
      <point x="122" y="-196"/>
    </contour>
    <contour>
      <point x="380" y="597" type="line"/>
      <point x="514" y="597" type="line"/>
      <point x="543" y="730" type="line"/>
      <point x="409" y="730" type="line"/>
    </contour>
  </outline>
</glyph>
<glyph name="Jcircumflex" format="1">
  <advance width="479"/>
  <unicode hex="0134"/>
  <outline>
    <contour>
      <point x="365" y="783" type="line"/>
      <point x="459" y="846" type="line"/>
      <point x="526" y="783" type="line"/>
      <point x="603" y="815" type="line"/>
      <point x="523" y="916" type="line"/>
      <point x="426" y="916" type="line"/>
      <point x="303" y="815" type="line"/>
    </contour>
    <contour>
      <point x="94" y="-11" type="curve" smooth="yes"/>
      <point x="319" y="-11"/>
      <point x="378" y="133"/>
      <point x="424" y="349" type="curve" smooth="yes"/>
      <point x="501" y="709" type="line"/>
      <point x="363" y="709" type="line"/>
      <point x="286" y="349" type="line" smooth="yes"/>
      <point x="252" y="189"/>
      <point x="223" y="111"/>
      <point x="120" y="111" type="curve" smooth="yes"/>
      <point x="66" y="111"/>
      <point x="24" y="132"/>
      <point x="11" y="145" type="curve"/>
      <point x="-43" y="33" type="line"/>
      <point x="-9" y="4"/>
      <point x="36" y="-11"/>
    </contour>
  </outline>
</glyph>
<glyph name="jcircumflex" format="1">
  <advance width="253"/>
  <unicode hex="0135"/>
  <outline>
    <contour>
      <point x="-88" y="-196" type="curve" smooth="yes"/>
      <point x="11" y="-196"/>
      <point x="105" y="-117"/>
      <point x="129" y="-4" type="curve" smooth="yes"/>
      <point x="241" y="524" type="line"/>
      <point x="107" y="524" type="line"/>
      <point x="-8" y="-14" type="line" smooth="yes"/>
      <point x="-16" y="-53"/>
      <point x="-48" y="-80"/>
      <point x="-80" y="-80" type="curve" smooth="yes"/>
      <point x="-100" y="-80"/>
      <point x="-119" y="-73"/>
      <point x="-130" y="-58" type="curve"/>
      <point x="-206" y="-149" type="line"/>
      <point x="-178" y="-181"/>
      <point x="-136" y="-196"/>
    </contour>
    <contour>
      <point x="106" y="597" type="line"/>
      <point x="200" y="660" type="line"/>
      <point x="267" y="597" type="line"/>
      <point x="344" y="629" type="line"/>
      <point x="264" y="730" type="line"/>
      <point x="167" y="730" type="line"/>
      <point x="44" y="629" type="line"/>
    </contour>
  </outline>
</glyph>
<glyph name="kcommaaccent" format="1">
  <advance width="560"/>
  <unicode hex="0137"/>
  <outline>
    <contour>
      <point x="206" y="-213" type="line"/>
      <point x="262" y="-141" type="line"/>
      <point x="281" y="-47" type="line"/>
      <point x="169" y="-47" type="line"/>
      <point x="148" y="-141" type="line"/>
      <point x="188" y="-141" type="line"/>
      <point x="145" y="-213" type="line"/>
    </contour>
    <contour>
      <point x="-4" y="0" type="line"/>
      <point x="129" y="0" type="line"/>
      <point x="179" y="237" type="line"/>
      <point x="217" y="337"/>
      <point x="301" y="418"/>
      <point x="369" y="418" type="curve" smooth="yes"/>
      <point x="396" y="418"/>
      <point x="415" y="404"/>
      <point x="415" y="373" type="curve" smooth="yes"/>
      <point x="415" y="316"/>
      <point x="351" y="260"/>
      <point x="238" y="237" type="curve"/>
      <point x="340" y="0" type="line"/>
      <point x="482" y="0" type="line"/>
      <point x="384" y="205" type="line"/>
      <point x="482" y="253"/>
      <point x="535" y="331"/>
      <point x="535" y="417" type="curve" smooth="yes"/>
      <point x="535" y="488"/>
      <point x="499" y="531"/>
      <point x="426" y="531" type="curve" smooth="yes"/>
      <point x="340" y="531"/>
      <point x="268" y="474"/>
      <point x="212" y="390" type="curve"/>
      <point x="284" y="730" type="line"/>
      <point x="151" y="730" type="line"/>
    </contour>
  </outline>
</glyph>
<glyph name="lacute" format="1">
  <advance width="309"/>
  <unicode hex="013A"/>
  <outline>
    <contour>
      <point x="357" y="891" type="line"/>
      <point x="233" y="891" type="line"/>
      <point x="157" y="772" type="line"/>
      <point x="244" y="755" type="line"/>
    </contour>
    <contour>
      <point x="121" y="-8" type="curve" smooth="yes"/>
      <point x="160" y="-8"/>
      <point x="214" y="2"/>
      <point x="252" y="19" type="curve"/>
      <point x="256" y="121" type="line"/>
      <point x="239" y="113"/>
      <point x="217" y="107"/>
      <point x="203" y="107" type="curve" smooth="yes"/>
      <point x="176" y="107"/>
      <point x="162" y="122"/>
      <point x="162" y="148" type="curve" smooth="yes"/>
      <point x="162" y="154"/>
      <point x="163" y="161"/>
      <point x="164" y="168" type="curve" smooth="yes"/>
      <point x="283" y="730" type="line"/>
      <point x="150" y="730" type="line"/>
      <point x="20" y="121" type="line" smooth="yes"/>
      <point x="18" y="107"/>
      <point x="16" y="95"/>
      <point x="16" y="83" type="curve" smooth="yes"/>
      <point x="16" y="25"/>
      <point x="53" y="-8"/>
    </contour>
  </outline>
</glyph>
<glyph name="Lcaron" format="1">
  <advance width="562"/>
  <unicode hex="013D"/>
  <outline>
    <contour>
      <point x="424" y="585" type="line"/>
      <point x="543" y="730" type="line"/>
      <point x="420" y="730" type="line"/>
      <point x="343" y="611" type="line"/>
    </contour>
    <contour>
      <point x="10" y="0" type="line"/>
      <point x="487" y="0" type="line"/>
      <point x="512" y="121" type="line"/>
      <point x="173" y="121" type="line"/>
      <point x="298" y="710" type="line"/>
      <point x="161" y="710" type="line"/>
    </contour>
  </outline>
</glyph>
<glyph name="Ldot" format="1">
  <advance width="562"/>
  <unicode hex="013F"/>
  <outline>
    <contour>
      <point x="10" y="0" type="line"/>
      <point x="487" y="0" type="line"/>
      <point x="512" y="121" type="line"/>
      <point x="173" y="121" type="line"/>
      <point x="298" y="710" type="line"/>
      <point x="161" y="710" type="line"/>
    </contour>
    <contour>
      <point x="446" y="340" type="line"/>
      <point x="478" y="491" type="line"/>
      <point x="368" y="491" type="line"/>
      <point x="336" y="340" type="line"/>
    </contour>
  </outline>
</glyph>
<glyph name="Lslash" format="1">
  <advance width="569"/>
  <unicode hex="0141"/>
  <outline>
    <contour>
      <point x="21" y="242" type="line"/>
      <point x="76" y="274" type="line"/>
      <point x="18" y="0" type="line"/>
      <point x="495" y="0" type="line"/>
      <point x="521" y="121" type="line"/>
      <point x="181" y="121" type="line"/>
      <point x="232" y="364" type="line"/>
      <point x="384" y="452" type="line"/>
      <point x="367" y="525" type="line"/>
      <point x="252" y="459" type="line"/>
      <point x="306" y="710" type="line"/>
      <point x="169" y="710" type="line"/>
      <point x="96" y="369" type="line"/>
      <point x="3" y="315" type="line"/>
    </contour>
  </outline>
</glyph>
<glyph name="Nacute" format="1">
  <advance width="733"/>
  <unicode hex="0143"/>
  <outline>
    <contour>
      <point x="602" y="916" type="line"/>
      <point x="478" y="916" type="line"/>
      <point x="402" y="797" type="line"/>
      <point x="489" y="780" type="line"/>
    </contour>
    <contour>
      <point x="10" y="0" type="line"/>
      <point x="147" y="0" type="line"/>
      <point x="243" y="455" type="line"/>
      <point x="484" y="0" type="line"/>
      <point x="595" y="0" type="line"/>
      <point x="746" y="709" type="line"/>
      <point x="609" y="709" type="line"/>
      <point x="510" y="244" type="line"/>
      <point x="268" y="710" type="line"/>
      <point x="161" y="710" type="line"/>
    </contour>
  </outline>
</glyph>
<glyph name="Ncommaaccent" format="1">
  <advance width="733"/>
  <unicode hex="0145"/>
  <outline>
    <contour>
      <point x="279" y="-213" type="line"/>
      <point x="335" y="-141" type="line"/>
      <point x="354" y="-47" type="line"/>
      <point x="242" y="-47" type="line"/>
      <point x="221" y="-141" type="line"/>
      <point x="261" y="-141" type="line"/>
      <point x="218" y="-213" type="line"/>
    </contour>
    <contour>
      <point x="10" y="0" type="line"/>
      <point x="147" y="0" type="line"/>
      <point x="243" y="455" type="line"/>
      <point x="484" y="0" type="line"/>
      <point x="595" y="0" type="line"/>
      <point x="746" y="709" type="line"/>
      <point x="609" y="709" type="line"/>
      <point x="510" y="244" type="line"/>
      <point x="268" y="710" type="line"/>
      <point x="161" y="710" type="line"/>
    </contour>
  </outline>
</glyph>
<glyph name="Ncaron" format="1">
  <advance width="733"/>
  <unicode hex="0147"/>
  <outline>
    <contour>
      <point x="407" y="783" type="line"/>
      <point x="504" y="783" type="line"/>
      <point x="628" y="884" type="line"/>
      <point x="565" y="916" type="line"/>
      <point x="471" y="853" type="line"/>
      <point x="404" y="916" type="line"/>
      <point x="327" y="884" type="line"/>
    </contour>
    <contour>
      <point x="10" y="0" type="line"/>
      <point x="147" y="0" type="line"/>
      <point x="243" y="455" type="line"/>
      <point x="484" y="0" type="line"/>
      <point x="595" y="0" type="line"/>
      <point x="746" y="709" type="line"/>
      <point x="609" y="709" type="line"/>
      <point x="510" y="244" type="line"/>
      <point x="268" y="710" type="line"/>
      <point x="161" y="710" type="line"/>
    </contour>
  </outline>
</glyph>
<glyph name="Eng" format="1">
  <advance width="720"/>
  <unicode hex="014A"/>
  <outline>
    <contour>
      <point x="364" y="-196" type="curve" smooth="yes"/>
      <point x="460" y="-196"/>
      <point x="556" y="-121"/>
      <point x="580" y="-9" type="curve" smooth="yes"/>
      <point x="733" y="709" type="line"/>
      <point x="595" y="709" type="line"/>
      <point x="498" y="250" type="line"/>
      <point x="266" y="710" type="line"/>
      <point x="161" y="710" type="line"/>
      <point x="10" y="0" type="line"/>
      <point x="147" y="0" type="line"/>
      <point x="243" y="451" type="line"/>
      <point x="454" y="28" type="line"/>
      <point x="445" y="-14" type="line" smooth="yes"/>
      <point x="437" y="-53"/>
      <point x="405" y="-80"/>
      <point x="372" y="-80" type="curve" smooth="yes"/>
      <point x="353" y="-80"/>
      <point x="333" y="-73"/>
      <point x="323" y="-58" type="curve"/>
      <point x="246" y="-149" type="line"/>
      <point x="274" y="-181"/>
      <point x="316" y="-196"/>
    </contour>
  </outline>
</glyph>
<glyph name="omacron" format="1">
  <advance width="586"/>
  <unicode hex="014D"/>
  <outline>
    <contour>
      <point x="507" y="632" type="line"/>
      <point x="525" y="715" type="line"/>
      <point x="239" y="715" type="line"/>
      <point x="221" y="632" type="line"/>
    </contour>
    <contour>
      <point x="227" y="-10" type="curve" smooth="yes"/>
      <point x="417" y="-10"/>
      <point x="554" y="150"/>
      <point x="554" y="314" type="curve" smooth="yes"/>
      <point x="554" y="434"/>
      <point x="481" y="533"/>
      <point x="342" y="533" type="curve" smooth="yes"/>
      <point x="152" y="533"/>
      <point x="15" y="374"/>
      <point x="15" y="208" type="curve" smooth="yes"/>
      <point x="15" y="90"/>
      <point x="87" y="-10"/>
    </contour>
    <contour>
      <point x="251" y="104" type="curve" smooth="yes"/>
      <point x="192" y="104"/>
      <point x="154" y="154"/>
      <point x="154" y="225" type="curve" smooth="yes"/>
      <point x="154" y="331"/>
      <point x="235" y="419"/>
      <point x="318" y="419" type="curve" smooth="yes"/>
      <point x="377" y="419"/>
      <point x="415" y="369"/>
      <point x="415" y="298" type="curve" smooth="yes"/>
      <point x="415" y="191"/>
      <point x="334" y="104"/>
    </contour>
  </outline>
</glyph>
<glyph name="Obreve" format="1">
  <advance width="729"/>
  <unicode hex="014E"/>
  <outline>
    <contour>
      <point x="299" y="-5" type="curve" smooth="yes"/>
      <point x="517" y="-5"/>
      <point x="714" y="204"/>
      <point x="714" y="418" type="curve" smooth="yes"/>
      <point x="714" y="571"/>
      <point x="623" y="715"/>
      <point x="455" y="715" type="curve" smooth="yes"/>
      <point x="236" y="715"/>
      <point x="37" y="506"/>
      <point x="37" y="290" type="curve" smooth="yes"/>
      <point x="37" y="136"/>
      <point x="130" y="-5"/>
    </contour>
    <contour>
      <point x="326" y="117" type="curve" smooth="yes"/>
      <point x="226" y="117"/>
      <point x="177" y="203"/>
      <point x="177" y="301" type="curve" smooth="yes"/>
      <point x="177" y="436"/>
      <point x="279" y="592"/>
      <point x="426" y="592" type="curve" smooth="yes"/>
      <point x="525" y="592"/>
      <point x="574" y="507"/>
      <point x="574" y="408" type="curve" smooth="yes"/>
      <point x="574" y="275"/>
      <point x="473" y="117"/>
    </contour>
    <contour>
      <point x="477" y="842" type="curve" smooth="yes"/>
      <point x="452" y="842"/>
      <point x="434" y="866"/>
      <point x="434" y="896" type="curve" smooth="yes"/>
      <point x="434" y="903"/>
      <point x="435" y="909"/>
      <point x="437" y="916" type="curve"/>
      <point x="365" y="916" type="line"/>
      <point x="362" y="905"/>
      <point x="361" y="894"/>
      <point x="361" y="883" type="curve" smooth="yes"/>
      <point x="361" y="823"/>
      <point x="400" y="782"/>
      <point x="465" y="782" type="curve" smooth="yes"/>
      <point x="539" y="782"/>
      <point x="604" y="839"/>
      <point x="621" y="916" type="curve"/>
      <point x="549" y="916" type="line"/>
      <point x="536" y="873"/>
      <point x="505" y="842"/>
    </contour>
  </outline>
</glyph>
<glyph name="obreve" format="1">
  <advance width="586"/>
  <unicode hex="014F"/>
  <outline>
    <contour>
      <point x="227" y="-10" type="curve" smooth="yes"/>
      <point x="417" y="-10"/>
      <point x="554" y="150"/>
      <point x="554" y="314" type="curve" smooth="yes"/>
      <point x="554" y="434"/>
      <point x="481" y="533"/>
      <point x="342" y="533" type="curve" smooth="yes"/>
      <point x="152" y="533"/>
      <point x="15" y="374"/>
      <point x="15" y="208" type="curve" smooth="yes"/>
      <point x="15" y="90"/>
      <point x="87" y="-10"/>
    </contour>
    <contour>
      <point x="251" y="104" type="curve" smooth="yes"/>
      <point x="192" y="104"/>
      <point x="154" y="154"/>
      <point x="154" y="225" type="curve" smooth="yes"/>
      <point x="154" y="331"/>
      <point x="235" y="419"/>
      <point x="318" y="419" type="curve" smooth="yes"/>
      <point x="377" y="419"/>
      <point x="415" y="369"/>
      <point x="415" y="298" type="curve" smooth="yes"/>
      <point x="415" y="191"/>
      <point x="334" y="104"/>
    </contour>
    <contour>
      <point x="365" y="656" type="curve" smooth="yes"/>
      <point x="340" y="656"/>
      <point x="322" y="680"/>
      <point x="322" y="710" type="curve" smooth="yes"/>
      <point x="322" y="717"/>
      <point x="323" y="723"/>
      <point x="325" y="730" type="curve"/>
      <point x="253" y="730" type="line"/>
      <point x="250" y="719"/>
      <point x="249" y="708"/>
      <point x="249" y="697" type="curve" smooth="yes"/>
      <point x="249" y="637"/>
      <point x="288" y="596"/>
      <point x="353" y="596" type="curve" smooth="yes"/>
      <point x="427" y="596"/>
      <point x="492" y="653"/>
      <point x="509" y="730" type="curve"/>
      <point x="437" y="730" type="line"/>
      <point x="424" y="687"/>
      <point x="393" y="656"/>
    </contour>
  </outline>
</glyph>
<glyph name="Scircumflex" format="1">
  <advance width="592"/>
  <unicode hex="015C"/>
  <outline>
    <contour>
      <point x="329" y="797" type="line"/>
      <point x="423" y="860" type="line"/>
      <point x="490" y="797" type="line"/>
      <point x="567" y="829" type="line"/>
      <point x="487" y="930" type="line"/>
      <point x="390" y="930" type="line"/>
      <point x="267" y="829" type="line"/>
    </contour>
    <contour>
      <point x="243" y="-8" type="curve" smooth="yes"/>
      <point x="395" y="-8"/>
      <point x="545" y="65"/>
      <point x="545" y="244" type="curve" smooth="yes"/>
      <point x="545" y="342"/>
      <point x="476" y="384"/>
      <point x="369" y="413" type="curve" smooth="yes"/>
      <point x="285" y="436"/>
      <point x="238" y="453"/>
      <point x="238" y="499" type="curve" smooth="yes"/>
      <point x="238" y="556"/>
      <point x="278" y="594"/>
      <point x="358" y="594" type="curve" smooth="yes"/>
      <point x="438" y="594"/>
      <point x="513" y="544"/>
      <point x="523" y="524" type="curve"/>
      <point x="608" y="636" type="line"/>
      <point x="558" y="678"/>
      <point x="482" y="715"/>
      <point x="388" y="715" type="curve" smooth="yes"/>
      <point x="231" y="715"/>
      <point x="87" y="618"/>
      <point x="87" y="453" type="curve" smooth="yes"/>
      <point x="87" y="372"/>
      <point x="140" y="331"/>
      <point x="240" y="300" type="curve" smooth="yes"/>
      <point x="327" y="273"/>
      <point x="391" y="254"/>
      <point x="391" y="202" type="curve" smooth="yes"/>
      <point x="391" y="150"/>
      <point x="351" y="116"/>
      <point x="272" y="116" type="curve" smooth="yes"/>
      <point x="168" y="116"/>
      <point x="79" y="179"/>
      <point x="65" y="203" type="curve"/>
      <point x="-21" y="84" type="line"/>
      <point x="45" y="26"/>
      <point x="143" y="-8"/>
    </contour>
  </outline>
</glyph>
<glyph name="Scaron" format="1">
  <advance width="592"/>
  <unicode hex="0160"/>
  <outline>
    <contour>
      <point x="353" y="797" type="line"/>
      <point x="450" y="797" type="line"/>
      <point x="574" y="898" type="line"/>
      <point x="511" y="930" type="line"/>
      <point x="417" y="867" type="line"/>
      <point x="350" y="930" type="line"/>
      <point x="273" y="898" type="line"/>
    </contour>
    <contour>
      <point x="243" y="-8" type="curve" smooth="yes"/>
      <point x="395" y="-8"/>
      <point x="545" y="65"/>
      <point x="545" y="244" type="curve" smooth="yes"/>
      <point x="545" y="342"/>
      <point x="476" y="384"/>
      <point x="369" y="413" type="curve" smooth="yes"/>
      <point x="285" y="436"/>
      <point x="238" y="453"/>
      <point x="238" y="499" type="curve" smooth="yes"/>
      <point x="238" y="556"/>
      <point x="278" y="594"/>
      <point x="358" y="594" type="curve" smooth="yes"/>
      <point x="438" y="594"/>
      <point x="513" y="544"/>
      <point x="523" y="524" type="curve"/>
      <point x="608" y="636" type="line"/>
      <point x="558" y="678"/>
      <point x="482" y="715"/>
      <point x="388" y="715" type="curve" smooth="yes"/>
      <point x="231" y="715"/>
      <point x="87" y="618"/>
      <point x="87" y="453" type="curve" smooth="yes"/>
      <point x="87" y="372"/>
      <point x="140" y="331"/>
      <point x="240" y="300" type="curve" smooth="yes"/>
      <point x="327" y="273"/>
      <point x="391" y="254"/>
      <point x="391" y="202" type="curve" smooth="yes"/>
      <point x="391" y="150"/>
      <point x="351" y="116"/>
      <point x="272" y="116" type="curve" smooth="yes"/>
      <point x="168" y="116"/>
      <point x="79" y="179"/>
      <point x="65" y="203" type="curve"/>
      <point x="-21" y="84" type="line"/>
      <point x="45" y="26"/>
      <point x="143" y="-8"/>
    </contour>
  </outline>
</glyph>
<glyph name="uni0162" format="1">
  <advance width="592"/>
  <unicode hex="0162"/>
  <outline>
    <contour>
      <point x="162" y="0" type="line"/>
      <point x="202" y="0" type="line"/>
      <point x="139" y="-92" type="line"/>
      <point x="155" y="-88"/>
      <point x="191" y="-80"/>
      <point x="217" y="-80" type="curve" smooth="yes"/>
      <point x="244" y="-80"/>
      <point x="261" y="-87"/>
      <point x="261" y="-107" type="curve" smooth="yes"/>
      <point x="261" y="-135"/>
      <point x="236" y="-146"/>
      <point x="200" y="-146" type="curve" smooth="yes"/>
      <point x="166" y="-146"/>
      <point x="132" y="-136"/>
      <point x="119" y="-127" type="curve"/>
      <point x="82" y="-176" type="line"/>
      <point x="105" y="-187"/>
      <point x="138" y="-196"/>
      <point x="180" y="-196" type="curve" smooth="yes"/>
      <point x="277" y="-196"/>
      <point x="325" y="-151"/>
      <point x="325" y="-94" type="curve" smooth="yes"/>
      <point x="325" y="-55"/>
      <point x="295" y="-38"/>
      <point x="257" y="-38" type="curve" smooth="yes"/>
      <point x="247" y="-38"/>
      <point x="235" y="-39"/>
      <point x="226" y="-42" type="curve"/>
      <point x="261" y="0" type="line"/>
      <point x="300" y="0" type="line"/>
      <point x="425" y="589" type="line"/>
      <point x="637" y="589" type="line"/>
      <point x="663" y="710" type="line"/>
      <point x="100" y="710" type="line"/>
      <point x="75" y="589" type="line"/>
      <point x="288" y="589" type="line"/>
    </contour>
  </outline>
</glyph>
<glyph name="uni0163" format="1">
  <advance width="373"/>
  <unicode hex="0163"/>
  <outline>
    <contour>
      <point x="1" y="-176" type="line"/>
      <point x="24" y="-187"/>
      <point x="57" y="-196"/>
      <point x="99" y="-196" type="curve" smooth="yes"/>
      <point x="196" y="-196"/>
      <point x="244" y="-151"/>
      <point x="244" y="-94" type="curve" smooth="yes"/>
      <point x="244" y="-55"/>
      <point x="214" y="-38"/>
      <point x="176" y="-38" type="curve" smooth="yes"/>
      <point x="166" y="-38"/>
      <point x="154" y="-39"/>
      <point x="145" y="-42" type="curve"/>
      <point x="173" y="-8" type="line"/>
      <point x="221" y="-5"/>
      <point x="272" y="10"/>
      <point x="307" y="27" type="curve"/>
      <point x="303" y="133" type="line"/>
      <point x="285" y="125"/>
      <point x="256" y="114"/>
      <point x="230" y="114" type="curve" smooth="yes"/>
      <point x="208" y="114"/>
      <point x="192" y="124"/>
      <point x="192" y="149" type="curve" smooth="yes"/>
      <point x="192" y="154"/>
      <point x="193" y="159"/>
      <point x="194" y="165" type="curve" smooth="yes"/>
      <point x="249" y="421" type="line"/>
      <point x="353" y="421" type="line"/>
      <point x="375" y="524" type="line"/>
      <point x="270" y="524" type="line"/>
      <point x="306" y="694" type="line"/>
      <point x="172" y="694" type="line"/>
      <point x="136" y="524" type="line"/>
      <point x="72" y="524" type="line"/>
      <point x="50" y="421" type="line"/>
      <point x="115" y="421" type="line"/>
      <point x="51" y="120" type="line" smooth="yes"/>
      <point x="48" y="107"/>
      <point x="47" y="95"/>
      <point x="47" y="83" type="curve" smooth="yes"/>
      <point x="47" y="32"/>
      <point x="75" y="4"/>
      <point x="118" y="-5" type="curve"/>
      <point x="58" y="-92" type="line"/>
      <point x="74" y="-88"/>
      <point x="110" y="-80"/>
      <point x="136" y="-80" type="curve" smooth="yes"/>
      <point x="163" y="-80"/>
      <point x="180" y="-87"/>
      <point x="180" y="-107" type="curve" smooth="yes"/>
      <point x="180" y="-135"/>
      <point x="155" y="-146"/>
      <point x="119" y="-146" type="curve" smooth="yes"/>
      <point x="85" y="-146"/>
      <point x="51" y="-136"/>
      <point x="38" y="-127" type="curve"/>
    </contour>
  </outline>
</glyph>
<glyph name="Tcaron" format="1">
  <advance width="592"/>
  <unicode hex="0164"/>
  <outline>
    <contour>
      <point x="343" y="783" type="line"/>
      <point x="440" y="783" type="line"/>
      <point x="564" y="884" type="line"/>
      <point x="501" y="916" type="line"/>
      <point x="407" y="853" type="line"/>
      <point x="340" y="916" type="line"/>
      <point x="263" y="884" type="line"/>
    </contour>
    <contour>
      <point x="163" y="0" type="line"/>
      <point x="301" y="0" type="line"/>
      <point x="426" y="589" type="line"/>
      <point x="638" y="589" type="line"/>
      <point x="664" y="710" type="line"/>
      <point x="101" y="710" type="line"/>
      <point x="76" y="589" type="line"/>
      <point x="289" y="589" type="line"/>
    </contour>
  </outline>
</glyph>
<glyph name="tbar" format="1">
  <advance width="374"/>
  <unicode hex="0167"/>
  <outline>
    <contour>
      <point x="18" y="264" type="line"/>
      <point x="82" y="264" type="line"/>
      <point x="51" y="120" type="line"/>
      <point x="49" y="107"/>
      <point x="48" y="95"/>
      <point x="48" y="83" type="curve" smooth="yes"/>
      <point x="48" y="18"/>
      <point x="94" y="-9"/>
      <point x="156" y="-9" type="curve" smooth="yes"/>
      <point x="210" y="-9"/>
      <point x="269" y="8"/>
      <point x="309" y="27" type="curve"/>
      <point x="304" y="133" type="line"/>
      <point x="287" y="126"/>
      <point x="257" y="114"/>
      <point x="232" y="114" type="curve" smooth="yes"/>
      <point x="209" y="114"/>
      <point x="194" y="124"/>
      <point x="194" y="150" type="curve" smooth="yes"/>
      <point x="194" y="156"/>
      <point x="194" y="163"/>
      <point x="197" y="174" type="curve" smooth="yes"/>
      <point x="216" y="264" type="line"/>
      <point x="321" y="264" type="line"/>
      <point x="338" y="344" type="line"/>
      <point x="233" y="344" type="line"/>
      <point x="250" y="421" type="line"/>
      <point x="354" y="421" type="line"/>
      <point x="376" y="524" type="line"/>
      <point x="272" y="524" type="line"/>
      <point x="308" y="694" type="line"/>
      <point x="174" y="694" type="line"/>
      <point x="138" y="524" type="line"/>
      <point x="73" y="524" type="line"/>
      <point x="51" y="421" type="line"/>
      <point x="116" y="421" type="line"/>
      <point x="99" y="344" type="line"/>
      <point x="35" y="344" type="line"/>
    </contour>
  </outline>
</glyph>
<glyph name="Utilde" format="1">
  <advance width="719"/>
  <unicode hex="0168"/>
  <outline>
    <contour>
      <point x="295" y="-5" type="curve" smooth="yes"/>
      <point x="503" y="-5"/>
      <point x="625" y="154"/>
      <point x="666" y="348" type="curve" smooth="yes"/>
      <point x="743" y="710" type="line"/>
      <point x="606" y="710" type="line"/>
      <point x="529" y="348" type="line" smooth="yes"/>
      <point x="504" y="232"/>
      <point x="441" y="117"/>
      <point x="320" y="117" type="curve" smooth="yes"/>
      <point x="232" y="117"/>
      <point x="201" y="179"/>
      <point x="201" y="259" type="curve" smooth="yes"/>
      <point x="201" y="287"/>
      <point x="204" y="317"/>
      <point x="211" y="348" type="curve" smooth="yes"/>
      <point x="288" y="710" type="line"/>
      <point x="151" y="710" type="line"/>
      <point x="74" y="348" type="line" smooth="yes"/>
      <point x="65" y="308"/>
      <point x="61" y="271"/>
      <point x="61" y="235" type="curve" smooth="yes"/>
      <point x="61" y="100"/>
      <point x="125" y="-5"/>
    </contour>
    <contour>
      <point x="519" y="788" type="curve" smooth="yes"/>
      <point x="609" y="788"/>
      <point x="661" y="897"/>
      <point x="665" y="916" type="curve"/>
      <point x="592" y="916" type="line"/>
      <point x="591" y="912"/>
      <point x="576" y="866"/>
      <point x="531" y="866" type="curve" smooth="yes"/>
      <point x="486" y="866"/>
      <point x="474" y="913"/>
      <point x="416" y="913" type="curve" smooth="yes"/>
      <point x="330" y="913"/>
      <point x="280" y="810"/>
      <point x="275" y="785" type="curve"/>
      <point x="349" y="785" type="line"/>
      <point x="349" y="788"/>
      <point x="361" y="833"/>
      <point x="403" y="833" type="curve" smooth="yes"/>
      <point x="445" y="833"/>
      <point x="462" y="788"/>
    </contour>
  </outline>
</glyph>
<glyph name="Ubreve" format="1">
  <advance width="719"/>
  <unicode hex="016C"/>
  <outline>
    <contour>
      <point x="295" y="-5" type="curve" smooth="yes"/>
      <point x="503" y="-5"/>
      <point x="625" y="154"/>
      <point x="666" y="348" type="curve" smooth="yes"/>
      <point x="743" y="710" type="line"/>
      <point x="606" y="710" type="line"/>
      <point x="529" y="348" type="line" smooth="yes"/>
      <point x="504" y="232"/>
      <point x="441" y="117"/>
      <point x="320" y="117" type="curve" smooth="yes"/>
      <point x="232" y="117"/>
      <point x="201" y="179"/>
      <point x="201" y="259" type="curve" smooth="yes"/>
      <point x="201" y="287"/>
      <point x="204" y="317"/>
      <point x="211" y="348" type="curve" smooth="yes"/>
      <point x="288" y="710" type="line"/>
      <point x="151" y="710" type="line"/>
      <point x="74" y="348" type="line" smooth="yes"/>
      <point x="65" y="308"/>
      <point x="61" y="271"/>
      <point x="61" y="235" type="curve" smooth="yes"/>
      <point x="61" y="100"/>
      <point x="125" y="-5"/>
    </contour>
    <contour>
      <point x="459" y="842" type="curve" smooth="yes"/>
      <point x="434" y="842"/>
      <point x="416" y="866"/>
      <point x="416" y="896" type="curve" smooth="yes"/>
      <point x="416" y="903"/>
      <point x="417" y="909"/>
      <point x="419" y="916" type="curve"/>
      <point x="347" y="916" type="line"/>
      <point x="344" y="905"/>
      <point x="343" y="894"/>
      <point x="343" y="883" type="curve" smooth="yes"/>
      <point x="343" y="823"/>
      <point x="382" y="782"/>
      <point x="447" y="782" type="curve" smooth="yes"/>
      <point x="521" y="782"/>
      <point x="586" y="839"/>
      <point x="603" y="916" type="curve"/>
      <point x="531" y="916" type="line"/>
      <point x="518" y="873"/>
      <point x="487" y="842"/>
    </contour>
  </outline>
</glyph>
<glyph name="uhungarumlaut" format="1">
  <advance width="595"/>
  <unicode hex="0171"/>
  <outline>
    <contour>
      <point x="145" y="-10" type="curve" smooth="yes"/>
      <point x="229" y="-10"/>
      <point x="308" y="26"/>
      <point x="368" y="98" type="curve"/>
      <point x="362" y="72"/>
      <point x="361" y="60"/>
      <point x="361" y="50" type="curve" smooth="yes"/>
      <point x="361" y="12"/>
      <point x="389" y="-7"/>
      <point x="435" y="-7" type="curve" smooth="yes"/>
      <point x="449" y="-7"/>
      <point x="467" y="-4"/>
      <point x="491" y="0" type="curve"/>
      <point x="515" y="114" type="line"/>
      <point x="498" y="115"/>
      <point x="491" y="121"/>
      <point x="491" y="136" type="curve" smooth="yes"/>
      <point x="491" y="141"/>
      <point x="492" y="147"/>
      <point x="493" y="154" type="curve" smooth="yes"/>
      <point x="572" y="524" type="line"/>
      <point x="438" y="524" type="line"/>
      <point x="369" y="199" type="line"/>
      <point x="326" y="135"/>
      <point x="272" y="104"/>
      <point x="225" y="104" type="curve" smooth="yes"/>
      <point x="186" y="104"/>
      <point x="165" y="128"/>
      <point x="165" y="175" type="curve" smooth="yes"/>
      <point x="165" y="189"/>
      <point x="168" y="205"/>
      <point x="172" y="225" type="curve" smooth="yes"/>
      <point x="235" y="524" type="line"/>
      <point x="102" y="524" type="line"/>
      <point x="32" y="196" type="line" smooth="yes"/>
      <point x="26" y="167"/>
      <point x="22" y="141"/>
      <point x="22" y="118" type="curve" smooth="yes"/>
      <point x="22" y="34"/>
      <point x="64" y="-10"/>
    </contour>
    <contour>
      <point x="371" y="730" type="line"/>
      <point x="268" y="730" type="line"/>
      <point x="198" y="611" type="line"/>
      <point x="265" y="595" type="line"/>
    </contour>
    <contour>
      <point x="527" y="730" type="line"/>
      <point x="424" y="730" type="line"/>
      <point x="355" y="611" type="line"/>
      <point x="421" y="595" type="line"/>
    </contour>
  </outline>
</glyph>
<glyph name="Uogonek" format="1">
  <advance width="719"/>
  <unicode hex="0172"/>
  <outline>
    <contour>
      <point x="260" y="-196" type="curve"/>
      <point x="302" y="-126" type="line"/>
      <point x="267" y="-124"/>
      <point x="250" y="-111"/>
      <point x="250" y="-91" type="curve" smooth="yes"/>
      <point x="250" y="-65"/>
      <point x="277" y="-37"/>
      <point x="337" y="-3" type="curve"/>
      <point x="519" y="17"/>
      <point x="628" y="167"/>
      <point x="666" y="348" type="curve" smooth="yes"/>
      <point x="743" y="710" type="line"/>
      <point x="606" y="710" type="line"/>
      <point x="529" y="348" type="line" smooth="yes"/>
      <point x="504" y="232"/>
      <point x="441" y="117"/>
      <point x="320" y="117" type="curve" smooth="yes"/>
      <point x="232" y="117"/>
      <point x="201" y="179"/>
      <point x="201" y="259" type="curve" smooth="yes"/>
      <point x="201" y="287"/>
      <point x="204" y="317"/>
      <point x="211" y="348" type="curve" smooth="yes"/>
      <point x="288" y="710" type="line"/>
      <point x="151" y="710" type="line"/>
      <point x="74" y="348" type="line" smooth="yes"/>
      <point x="65" y="308"/>
      <point x="61" y="271"/>
      <point x="61" y="235" type="curve" smooth="yes"/>
      <point x="61" y="109"/>
      <point x="116" y="10"/>
      <point x="260" y="-3" type="curve"/>
      <point x="195" y="-41"/>
      <point x="163" y="-81"/>
      <point x="163" y="-120" type="curve" smooth="yes"/>
      <point x="163" y="-156"/>
      <point x="194" y="-186"/>
    </contour>
  </outline>
</glyph>
<glyph name="uogonek" format="1">
  <advance width="595"/>
  <unicode hex="0173"/>
  <outline>
    <contour>
      <point x="145" y="-10" type="curve" smooth="yes"/>
      <point x="229" y="-10"/>
      <point x="308" y="26"/>
      <point x="368" y="98" type="curve"/>
      <point x="362" y="72"/>
      <point x="361" y="60"/>
      <point x="361" y="50" type="curve" smooth="yes"/>
      <point x="361" y="20"/>
      <point x="378" y="2"/>
      <point x="407" y="-4" type="curve"/>
      <point x="344" y="-42"/>
      <point x="312" y="-81"/>
      <point x="312" y="-120" type="curve" smooth="yes"/>
      <point x="312" y="-156"/>
      <point x="343" y="-186"/>
      <point x="409" y="-196" type="curve"/>
      <point x="451" y="-126" type="line"/>
      <point x="416" y="-124"/>
      <point x="399" y="-111"/>
      <point x="399" y="-91" type="curve" smooth="yes"/>
      <point x="399" y="-64"/>
      <point x="428" y="-36"/>
      <point x="491" y="0" type="curve"/>
      <point x="515" y="114" type="line"/>
      <point x="498" y="115"/>
      <point x="491" y="121"/>
      <point x="491" y="136" type="curve" smooth="yes"/>
      <point x="491" y="141"/>
      <point x="492" y="147"/>
      <point x="493" y="154" type="curve" smooth="yes"/>
      <point x="572" y="524" type="line"/>
      <point x="438" y="524" type="line"/>
      <point x="369" y="199" type="line"/>
      <point x="326" y="135"/>
      <point x="272" y="104"/>
      <point x="225" y="104" type="curve" smooth="yes"/>
      <point x="186" y="104"/>
      <point x="165" y="128"/>
      <point x="165" y="175" type="curve" smooth="yes"/>
      <point x="165" y="189"/>
      <point x="168" y="205"/>
      <point x="172" y="225" type="curve" smooth="yes"/>
      <point x="235" y="524" type="line"/>
      <point x="102" y="524" type="line"/>
      <point x="32" y="196" type="line" smooth="yes"/>
      <point x="26" y="167"/>
      <point x="22" y="141"/>
      <point x="22" y="118" type="curve" smooth="yes"/>
      <point x="22" y="34"/>
      <point x="64" y="-10"/>
    </contour>
  </outline>
</glyph>
<glyph name="Zacute" format="1">
  <advance width="597"/>
  <unicode hex="0179"/>
  <outline>
    <contour>
      <point x="526" y="916" type="line"/>
      <point x="402" y="916" type="line"/>
      <point x="326" y="797" type="line"/>
      <point x="413" y="780" type="line"/>
    </contour>
    <contour>
      <point x="-35" y="0" type="line"/>
      <point x="500" y="0" type="line"/>
      <point x="525" y="121" type="line"/>
      <point x="163" y="121" type="line"/>
      <point x="626" y="606" type="line"/>
      <point x="648" y="710" type="line"/>
      <point x="127" y="710" type="line"/>
      <point x="102" y="589" type="line"/>
      <point x="463" y="589" type="line"/>
      <point x="-13" y="104" type="line"/>
    </contour>
  </outline>
</glyph>
<glyph name="Schwa" format="1">
  <advance width="718"/>
  <unicode hex="018F"/>
  <outline>
    <contour>
      <point x="288" y="-5" type="curve" smooth="yes"/>
      <point x="520" y="-5"/>
      <point x="704" y="212"/>
      <point x="704" y="425" type="curve" smooth="yes"/>
      <point x="704" y="577"/>
      <point x="611" y="715"/>
      <point x="443" y="715" type="curve" smooth="yes"/>
      <point x="307" y="715"/>
      <point x="180" y="640"/>
      <point x="106" y="530" type="curve"/>
      <point x="236" y="483" type="line"/>
      <point x="268" y="548"/>
      <point x="344" y="592"/>
      <point x="414" y="592" type="curve" smooth="yes"/>
      <point x="496" y="592"/>
      <point x="556" y="531"/>
      <point x="556" y="432" type="curve" smooth="yes"/>
      <point x="556" y="422"/>
      <point x="555" y="411"/>
      <point x="554" y="401" type="curve"/>
      <point x="46" y="401" type="line"/>
      <point x="36" y="379"/>
      <point x="22" y="339"/>
      <point x="22" y="283" type="curve" smooth="yes"/>
      <point x="22" y="135"/>
      <point x="115" y="-5"/>
    </contour>
    <contour>
      <point x="316" y="116" type="curve" smooth="yes"/>
      <point x="222" y="116"/>
      <point x="162" y="175"/>
      <point x="162" y="255" type="curve" smooth="yes"/>
      <point x="162" y="268"/>
      <point x="163" y="280"/>
      <point x="166" y="293" type="curve"/>
      <point x="530" y="293" type="line"/>
      <point x="498" y="189"/>
      <point x="411" y="116"/>
    </contour>
  </outline>
</glyph>
<glyph name="uni01C6" format="1">
  <advance width="1094"/>
  <unicode hex="01C6"/>
  <outline>
    <contour>
      <point x="856" y="597" type="line"/>
      <point x="953" y="597" type="line"/>
      <point x="1077" y="698" type="line"/>
      <point x="1014" y="730" type="line"/>
      <point x="920" y="667" type="line"/>
      <point x="853" y="730" type="line"/>
      <point x="776" y="698" type="line"/>
    </contour>
    <contour>
      <point x="586" y="0" type="line"/>
      <point x="1002" y="0" type="line"/>
      <point x="1022" y="94" type="line"/>
      <point x="750" y="94" type="line"/>
      <point x="1091" y="442" type="line"/>
      <point x="1109" y="524" type="line"/>
      <point x="709" y="524" type="line"/>
      <point x="689" y="430" type="line"/>
      <point x="945" y="430" type="line"/>
      <point x="603" y="82" type="line"/>
    </contour>
    <contour>
      <point x="201" y="-10" type="curve" smooth="yes"/>
      <point x="270" y="-10"/>
      <point x="344" y="25"/>
      <point x="394" y="91" type="curve"/>
      <point x="390" y="72"/>
      <point x="388" y="60"/>
      <point x="388" y="50" type="curve" smooth="yes"/>
      <point x="388" y="12"/>
      <point x="417" y="-7"/>
      <point x="464" y="-7" type="curve" smooth="yes"/>
      <point x="477" y="-7"/>
      <point x="495" y="-4"/>
      <point x="519" y="0" type="curve"/>
      <point x="543" y="114" type="line"/>
      <point x="527" y="115"/>
      <point x="519" y="121"/>
      <point x="519" y="136" type="curve" smooth="yes"/>
      <point x="519" y="141"/>
      <point x="520" y="147"/>
      <point x="522" y="154" type="curve" smooth="yes"/>
      <point x="644" y="730" type="line"/>
      <point x="510" y="730" type="line"/>
      <point x="446" y="432" type="line"/>
      <point x="427" y="491"/>
      <point x="374" y="533"/>
      <point x="302" y="533" type="curve" smooth="yes"/>
      <point x="150" y="533"/>
      <point x="15" y="378"/>
      <point x="15" y="205" type="curve" smooth="yes"/>
      <point x="15" y="84"/>
      <point x="85" y="-10"/>
    </contour>
    <contour>
      <point x="261" y="104" type="curve" smooth="yes"/>
      <point x="196" y="104"/>
      <point x="156" y="157"/>
      <point x="156" y="226" type="curve" smooth="yes"/>
      <point x="156" y="322"/>
      <point x="234" y="419"/>
      <point x="320" y="419" type="curve" smooth="yes"/>
      <point x="370" y="419"/>
      <point x="414" y="375"/>
      <point x="422" y="317" type="curve"/>
      <point x="396" y="192" type="line"/>
      <point x="367" y="141"/>
      <point x="307" y="104"/>
    </contour>
  </outline>
</glyph>
<glyph name="uni01C8" format="1">
  <advance width="819"/>
  <unicode hex="01C8"/>
  <outline>
    <contour>
      <point x="478" y="-196" type="curve" smooth="yes"/>
      <point x="577" y="-196"/>
      <point x="671" y="-117"/>
      <point x="695" y="-4" type="curve" smooth="yes"/>
      <point x="807" y="524" type="line"/>
      <point x="673" y="524" type="line"/>
      <point x="558" y="-14" type="line" smooth="yes"/>
      <point x="550" y="-53"/>
      <point x="518" y="-80"/>
      <point x="486" y="-80" type="curve" smooth="yes"/>
      <point x="466" y="-80"/>
      <point x="447" y="-73"/>
      <point x="436" y="-58" type="curve"/>
      <point x="360" y="-149" type="line"/>
      <point x="388" y="-181"/>
      <point x="430" y="-196"/>
    </contour>
    <contour>
      <point x="688" y="597" type="line"/>
      <point x="822" y="597" type="line"/>
      <point x="851" y="730" type="line"/>
      <point x="717" y="730" type="line"/>
    </contour>
    <contour>
      <point x="10" y="0" type="line"/>
      <point x="487" y="0" type="line"/>
      <point x="512" y="121" type="line"/>
      <point x="173" y="121" type="line"/>
      <point x="298" y="710" type="line"/>
      <point x="161" y="710" type="line"/>
    </contour>
  </outline>
</glyph>
<glyph name="uni01C9" format="1">
  <advance width="567"/>
  <unicode hex="01C9"/>
  <outline>
    <contour>
      <point x="226" y="-196" type="curve" smooth="yes"/>
      <point x="325" y="-196"/>
      <point x="419" y="-117"/>
      <point x="443" y="-4" type="curve" smooth="yes"/>
      <point x="555" y="524" type="line"/>
      <point x="421" y="524" type="line"/>
      <point x="306" y="-14" type="line" smooth="yes"/>
      <point x="298" y="-53"/>
      <point x="266" y="-80"/>
      <point x="234" y="-80" type="curve" smooth="yes"/>
      <point x="214" y="-80"/>
      <point x="195" y="-73"/>
      <point x="184" y="-58" type="curve"/>
      <point x="108" y="-149" type="line"/>
      <point x="136" y="-181"/>
      <point x="178" y="-196"/>
    </contour>
    <contour>
      <point x="436" y="597" type="line"/>
      <point x="570" y="597" type="line"/>
      <point x="599" y="730" type="line"/>
      <point x="465" y="730" type="line"/>
    </contour>
    <contour>
      <point x="121" y="-8" type="curve" smooth="yes"/>
      <point x="160" y="-8"/>
      <point x="214" y="2"/>
      <point x="252" y="19" type="curve"/>
      <point x="256" y="121" type="line"/>
      <point x="239" y="113"/>
      <point x="217" y="107"/>
      <point x="203" y="107" type="curve" smooth="yes"/>
      <point x="176" y="107"/>
      <point x="162" y="122"/>
      <point x="162" y="148" type="curve" smooth="yes"/>
      <point x="162" y="154"/>
      <point x="163" y="161"/>
      <point x="164" y="168" type="curve" smooth="yes"/>
      <point x="283" y="730" type="line"/>
      <point x="150" y="730" type="line"/>
      <point x="20" y="121" type="line" smooth="yes"/>
      <point x="18" y="107"/>
      <point x="16" y="95"/>
      <point x="16" y="83" type="curve" smooth="yes"/>
      <point x="16" y="25"/>
      <point x="53" y="-8"/>
    </contour>
  </outline>
</glyph>
<glyph name="uni01CB" format="1">
  <advance width="991"/>
  <unicode hex="01CB"/>
  <outline>
    <contour>
      <point x="650" y="-196" type="curve" smooth="yes"/>
      <point x="749" y="-196"/>
      <point x="843" y="-117"/>
      <point x="867" y="-4" type="curve" smooth="yes"/>
      <point x="979" y="524" type="line"/>
      <point x="845" y="524" type="line"/>
      <point x="730" y="-14" type="line" smooth="yes"/>
      <point x="722" y="-53"/>
      <point x="690" y="-80"/>
      <point x="658" y="-80" type="curve" smooth="yes"/>
      <point x="638" y="-80"/>
      <point x="619" y="-73"/>
      <point x="608" y="-58" type="curve"/>
      <point x="532" y="-149" type="line"/>
      <point x="560" y="-181"/>
      <point x="602" y="-196"/>
    </contour>
    <contour>
      <point x="860" y="597" type="line"/>
      <point x="994" y="597" type="line"/>
      <point x="1023" y="730" type="line"/>
      <point x="889" y="730" type="line"/>
    </contour>
    <contour>
      <point x="10" y="0" type="line"/>
      <point x="147" y="0" type="line"/>
      <point x="243" y="455" type="line"/>
      <point x="484" y="0" type="line"/>
      <point x="595" y="0" type="line"/>
      <point x="746" y="709" type="line"/>
      <point x="609" y="709" type="line"/>
      <point x="510" y="244" type="line"/>
      <point x="268" y="710" type="line"/>
      <point x="161" y="710" type="line"/>
    </contour>
  </outline>
</glyph>
<glyph name="oogonek" format="1">
  <advance width="586"/>
  <unicode hex="01EB"/>
  <outline>
    <contour>
      <point x="202" y="-201" type="curve"/>
      <point x="244" y="-131" type="line"/>
      <point x="209" y="-129"/>
      <point x="192" y="-116"/>
      <point x="192" y="-96" type="curve" smooth="yes"/>
      <point x="192" y="-69"/>
      <point x="221" y="-41"/>
      <point x="283" y="-5" type="curve"/>
      <point x="443" y="22"/>
      <point x="554" y="166"/>
      <point x="554" y="314" type="curve" smooth="yes"/>
      <point x="554" y="434"/>
      <point x="481" y="533"/>
      <point x="342" y="533" type="curve" smooth="yes"/>
      <point x="152" y="533"/>
      <point x="15" y="374"/>
      <point x="15" y="208" type="curve" smooth="yes"/>
      <point x="15" y="97"/>
      <point x="78" y="2"/>
      <point x="201" y="-9" type="curve"/>
      <point x="137" y="-47"/>
      <point x="105" y="-86"/>
      <point x="105" y="-125" type="curve" smooth="yes"/>
      <point x="105" y="-161"/>
      <point x="136" y="-191"/>
    </contour>
    <contour>
      <point x="251" y="104" type="curve" smooth="yes"/>
      <point x="192" y="104"/>
      <point x="154" y="154"/>
      <point x="154" y="225" type="curve" smooth="yes"/>
      <point x="154" y="331"/>
      <point x="235" y="419"/>
      <point x="318" y="419" type="curve" smooth="yes"/>
      <point x="377" y="419"/>
      <point x="415" y="369"/>
      <point x="415" y="298" type="curve" smooth="yes"/>
      <point x="415" y="191"/>
      <point x="334" y="104"/>
    </contour>
  </outline>
</glyph>
<glyph name="Gacute" format="1">
  <advance width="697"/>
  <unicode hex="01F4"/>
  <outline>
    <contour>
      <point x="600" y="916" type="line"/>
      <point x="476" y="916" type="line"/>
      <point x="400" y="797" type="line"/>
      <point x="487" y="780" type="line"/>
    </contour>
    <contour>
      <point x="477" y="0" type="line"/>
      <point x="591" y="0" type="line"/>
      <point x="669" y="365" type="line"/>
      <point x="420" y="365" type="line"/>
      <point x="398" y="264" type="line"/>
      <point x="533" y="264" type="line"/>
      <point x="522" y="214" type="line"/>
      <point x="457" y="149"/>
      <point x="393" y="117"/>
      <point x="329" y="117" type="curve" smooth="yes"/>
      <point x="235" y="117"/>
      <point x="178" y="197"/>
      <point x="178" y="302" type="curve" smooth="yes"/>
      <point x="178" y="451"/>
      <point x="291" y="593"/>
      <point x="423" y="593" type="curve" smooth="yes"/>
      <point x="494" y="593"/>
      <point x="550" y="554"/>
      <point x="568" y="484" type="curve"/>
      <point x="687" y="560" type="line"/>
      <point x="661" y="654"/>
      <point x="579" y="715"/>
      <point x="453" y="715" type="curve" smooth="yes"/>
      <point x="239" y="715"/>
      <point x="37" y="516"/>
      <point x="37" y="287" type="curve" smooth="yes"/>
      <point x="37" y="121"/>
      <point x="140" y="-5"/>
      <point x="291" y="-5" type="curve" smooth="yes"/>
      <point x="361" y="-5"/>
      <point x="427" y="22"/>
      <point x="494" y="80" type="curve"/>
    </contour>
  </outline>
</glyph>
<glyph name="aringacute" format="1">
  <advance width="624"/>
  <unicode hex="01FB"/>
  <outline>
    <contour>
      <point x="201" y="-10" type="curve" smooth="yes"/>
      <point x="270" y="-10"/>
      <point x="344" y="25"/>
      <point x="394" y="91" type="curve"/>
      <point x="390" y="74"/>
      <point x="388" y="62"/>
      <point x="388" y="53" type="curve" smooth="yes"/>
      <point x="388" y="13"/>
      <point x="417" y="-7"/>
      <point x="464" y="-7" type="curve" smooth="yes"/>
      <point x="477" y="-7"/>
      <point x="495" y="-4"/>
      <point x="519" y="0" type="curve"/>
      <point x="543" y="114" type="line"/>
      <point x="527" y="115"/>
      <point x="519" y="121"/>
      <point x="519" y="136" type="curve" smooth="yes"/>
      <point x="519" y="141"/>
      <point x="520" y="147"/>
      <point x="522" y="154" type="curve" smooth="yes"/>
      <point x="600" y="522" type="line"/>
      <point x="466" y="522" type="line"/>
      <point x="446" y="432" type="line"/>
      <point x="427" y="491"/>
      <point x="374" y="533"/>
      <point x="302" y="533" type="curve" smooth="yes"/>
      <point x="150" y="533"/>
      <point x="15" y="378"/>
      <point x="15" y="205" type="curve" smooth="yes"/>
      <point x="15" y="84"/>
      <point x="85" y="-10"/>
    </contour>
    <contour>
      <point x="261" y="104" type="curve" smooth="yes"/>
      <point x="196" y="104"/>
      <point x="156" y="157"/>
      <point x="156" y="226" type="curve" smooth="yes"/>
      <point x="156" y="322"/>
      <point x="234" y="419"/>
      <point x="320" y="419" type="curve" smooth="yes"/>
      <point x="370" y="419"/>
      <point x="414" y="375"/>
      <point x="422" y="317" type="curve"/>
      <point x="396" y="192" type="line"/>
      <point x="367" y="141"/>
      <point x="307" y="104"/>
    </contour>
    <contour>
      <point x="511" y="886" type="line"/>
      <point x="387" y="886" type="line"/>
      <point x="311" y="767" type="line"/>
      <point x="398" y="750" type="line"/>
    </contour>
    <contour>
      <point x="246" y="638" type="curve" smooth="yes"/>
      <point x="246" y="599"/>
      <point x="277" y="576"/>
      <point x="326" y="576" type="curve" smooth="yes"/>
      <point x="392" y="576"/>
      <point x="439" y="611"/>
      <point x="439" y="668" type="curve" smooth="yes"/>
      <point x="439" y="707"/>
      <point x="409" y="730"/>
      <point x="359" y="730" type="curve" smooth="yes"/>
      <point x="294" y="730"/>
      <point x="246" y="696"/>
    </contour>
    <contour>
      <point x="350" y="689" type="curve" smooth="yes"/>
      <point x="369" y="689"/>
      <point x="382" y="677"/>
      <point x="382" y="659" type="curve" smooth="yes"/>
      <point x="382" y="635"/>
      <point x="358" y="617"/>
      <point x="335" y="617" type="curve" smooth="yes"/>
      <point x="316" y="617"/>
      <point x="304" y="630"/>
      <point x="304" y="647" type="curve" smooth="yes"/>
      <point x="304" y="671"/>
      <point x="325" y="689"/>
    </contour>
  </outline>
</glyph>
<glyph name="Ainvertedbreve" format="1">
  <advance width="645"/>
  <unicode hex="0202"/>
  <outline>
    <contour>
      <point x="-53" y="0" type="line"/>
      <point x="89" y="0" type="line"/>
      <point x="185" y="177" type="line"/>
      <point x="414" y="177" type="line"/>
      <point x="436" y="0" type="line"/>
      <point x="578" y="0" type="line"/>
      <point x="475" y="710" type="line"/>
      <point x="352" y="710" type="line"/>
    </contour>
    <contour>
      <point x="228" y="274" type="line"/>
      <point x="380" y="553" type="line"/>
      <point x="411" y="274" type="line"/>
    </contour>
    <contour>
      <point x="301" y="782" type="curve"/>
      <point x="372" y="782" type="line"/>
      <point x="382" y="832"/>
      <point x="407" y="856"/>
      <point x="445" y="856" type="curve" smooth="yes"/>
      <point x="474" y="856"/>
      <point x="487" y="841"/>
      <point x="487" y="810" type="curve" smooth="yes"/>
      <point x="487" y="802"/>
      <point x="486" y="792"/>
      <point x="485" y="782" type="curve"/>
      <point x="556" y="782" type="line"/>
      <point x="558" y="792"/>
      <point x="559" y="802"/>
      <point x="559" y="812" type="curve" smooth="yes"/>
      <point x="559" y="870"/>
      <point x="521" y="916"/>
      <point x="456" y="916" type="curve" smooth="yes"/>
      <point x="383" y="916"/>
      <point x="317" y="859"/>
    </contour>
  </outline>
</glyph>
<glyph name="ainvertedbreve" format="1">
  <advance width="624"/>
  <unicode hex="0203"/>
  <outline>
    <contour>
      <point x="201" y="-10" type="curve" smooth="yes"/>
      <point x="270" y="-10"/>
      <point x="344" y="25"/>
      <point x="394" y="91" type="curve"/>
      <point x="390" y="74"/>
      <point x="388" y="62"/>
      <point x="388" y="53" type="curve" smooth="yes"/>
      <point x="388" y="13"/>
      <point x="417" y="-7"/>
      <point x="464" y="-7" type="curve" smooth="yes"/>
      <point x="477" y="-7"/>
      <point x="495" y="-4"/>
      <point x="519" y="0" type="curve"/>
      <point x="543" y="114" type="line"/>
      <point x="527" y="115"/>
      <point x="519" y="121"/>
      <point x="519" y="136" type="curve" smooth="yes"/>
      <point x="519" y="141"/>
      <point x="520" y="147"/>
      <point x="522" y="154" type="curve" smooth="yes"/>
      <point x="600" y="522" type="line"/>
      <point x="466" y="522" type="line"/>
      <point x="446" y="432" type="line"/>
      <point x="427" y="491"/>
      <point x="374" y="533"/>
      <point x="302" y="533" type="curve" smooth="yes"/>
      <point x="150" y="533"/>
      <point x="15" y="378"/>
      <point x="15" y="205" type="curve" smooth="yes"/>
      <point x="15" y="84"/>
      <point x="85" y="-10"/>
    </contour>
    <contour>
      <point x="261" y="104" type="curve" smooth="yes"/>
      <point x="196" y="104"/>
      <point x="156" y="157"/>
      <point x="156" y="226" type="curve" smooth="yes"/>
      <point x="156" y="322"/>
      <point x="234" y="419"/>
      <point x="320" y="419" type="curve" smooth="yes"/>
      <point x="370" y="419"/>
      <point x="414" y="375"/>
      <point x="422" y="317" type="curve"/>
      <point x="396" y="192" type="line"/>
      <point x="367" y="141"/>
      <point x="307" y="104"/>
    </contour>
    <contour>
      <point x="211" y="596" type="curve"/>
      <point x="282" y="596" type="line"/>
      <point x="292" y="646"/>
      <point x="317" y="670"/>
      <point x="355" y="670" type="curve" smooth="yes"/>
      <point x="384" y="670"/>
      <point x="397" y="655"/>
      <point x="397" y="624" type="curve" smooth="yes"/>
      <point x="397" y="616"/>
      <point x="396" y="606"/>
      <point x="395" y="596" type="curve"/>
      <point x="466" y="596" type="line"/>
      <point x="468" y="606"/>
      <point x="469" y="616"/>
      <point x="469" y="626" type="curve" smooth="yes"/>
      <point x="469" y="684"/>
      <point x="431" y="730"/>
      <point x="366" y="730" type="curve" smooth="yes"/>
      <point x="293" y="730"/>
      <point x="227" y="673"/>
    </contour>
  </outline>
</glyph>
<glyph name="Einvertedbreve" format="1">
  <advance width="578"/>
  <unicode hex="0206"/>
  <outline>
    <contour>
      <point x="281" y="782" type="curve"/>
      <point x="352" y="782" type="line"/>
      <point x="362" y="832"/>
      <point x="387" y="856"/>
      <point x="425" y="856" type="curve" smooth="yes"/>
      <point x="454" y="856"/>
      <point x="467" y="841"/>
      <point x="467" y="810" type="curve" smooth="yes"/>
      <point x="467" y="802"/>
      <point x="466" y="792"/>
      <point x="465" y="782" type="curve"/>
      <point x="536" y="782" type="line"/>
      <point x="538" y="792"/>
      <point x="539" y="802"/>
      <point x="539" y="812" type="curve" smooth="yes"/>
      <point x="539" y="870"/>
      <point x="501" y="916"/>
      <point x="436" y="916" type="curve" smooth="yes"/>
      <point x="363" y="916"/>
      <point x="297" y="859"/>
    </contour>
    <contour>
      <point x="10" y="0" type="line"/>
      <point x="479" y="0" type="line"/>
      <point x="505" y="121" type="line"/>
      <point x="173" y="121" type="line"/>
      <point x="212" y="306" type="line"/>
      <point x="491" y="306" type="line"/>
      <point x="515" y="418" type="line"/>
      <point x="236" y="418" type="line"/>
      <point x="272" y="589" type="line"/>
      <point x="596" y="589" type="line"/>
      <point x="621" y="710" type="line"/>
      <point x="161" y="710" type="line"/>
    </contour>
  </outline>
</glyph>
<glyph name="einvertedbreve" format="1">
  <advance width="551"/>
  <unicode hex="0207"/>
  <outline>
    <contour>
      <point x="237" y="596" type="curve"/>
      <point x="308" y="596" type="line"/>
      <point x="318" y="646"/>
      <point x="343" y="670"/>
      <point x="381" y="670" type="curve" smooth="yes"/>
      <point x="410" y="670"/>
      <point x="423" y="655"/>
      <point x="423" y="624" type="curve" smooth="yes"/>
      <point x="423" y="616"/>
      <point x="422" y="606"/>
      <point x="421" y="596" type="curve"/>
      <point x="492" y="596" type="line"/>
      <point x="494" y="606"/>
      <point x="495" y="616"/>
      <point x="495" y="626" type="curve" smooth="yes"/>
      <point x="495" y="684"/>
      <point x="457" y="730"/>
      <point x="392" y="730" type="curve" smooth="yes"/>
      <point x="319" y="730"/>
      <point x="253" y="673"/>
    </contour>
    <contour>
      <point x="230" y="-10" type="curve" smooth="yes"/>
      <point x="334" y="-10"/>
      <point x="438" y="46"/>
      <point x="492" y="127" type="curve"/>
      <point x="386" y="160" type="line"/>
      <point x="358" y="115"/>
      <point x="307" y="88"/>
      <point x="254" y="88" type="curve" smooth="yes"/>
      <point x="185" y="88"/>
      <point x="154" y="137"/>
      <point x="154" y="207" type="curve" smooth="yes"/>
      <point x="154" y="220" type="line"/>
      <point x="182" y="218"/>
      <point x="207" y="218"/>
      <point x="231" y="218" type="curve" smooth="yes"/>
      <point x="432" y="218"/>
      <point x="533" y="275"/>
      <point x="533" y="387" type="curve" smooth="yes"/>
      <point x="533" y="481"/>
      <point x="460" y="533"/>
      <point x="347" y="533" type="curve" smooth="yes"/>
      <point x="160" y="533"/>
      <point x="16" y="385"/>
      <point x="16" y="211" type="curve" smooth="yes"/>
      <point x="16" y="83"/>
      <point x="97" y="-10"/>
    </contour>
    <contour>
      <point x="327" y="436" type="curve" smooth="yes"/>
      <point x="374" y="436"/>
      <point x="406" y="416"/>
      <point x="406" y="378" type="curve" smooth="yes"/>
      <point x="406" y="331"/>
      <point x="361" y="303"/>
      <point x="232" y="303" type="curve" smooth="yes"/>
      <point x="211" y="303"/>
      <point x="191" y="303"/>
      <point x="170" y="304" type="curve"/>
      <point x="195" y="377"/>
      <point x="249" y="436"/>
    </contour>
  </outline>
</glyph>
<glyph name="Idblgrave" format="1">
  <advance width="285"/>
  <unicode hex="0208"/>
  <outline>
    <contour>
      <point x="10" y="0" type="line"/>
      <point x="147" y="0" type="line"/>
      <point x="298" y="709" type="line"/>
      <point x="161" y="709" type="line"/>
    </contour>
    <contour>
      <point x="305" y="781" type="line"/>
      <point x="378" y="799" type="line"/>
      <point x="358" y="918" type="line"/>
      <point x="256" y="918" type="line"/>
    </contour>
    <contour>
      <point x="149" y="781" type="line"/>
      <point x="221" y="799" type="line"/>
      <point x="203" y="918" type="line"/>
      <point x="99" y="918" type="line"/>
    </contour>
  </outline>
</glyph>
<glyph name="odblgrave" format="1">
  <advance width="586"/>
  <unicode hex="020D"/>
  <outline>
    <contour>
      <point x="417" y="593" type="line"/>
      <point x="490" y="611" type="line"/>
      <point x="470" y="730" type="line"/>
      <point x="368" y="730" type="line"/>
    </contour>
    <contour>
      <point x="261" y="593" type="line"/>
      <point x="333" y="611" type="line"/>
      <point x="315" y="730" type="line"/>
      <point x="211" y="730" type="line"/>
    </contour>
    <contour>
      <point x="227" y="-10" type="curve" smooth="yes"/>
      <point x="417" y="-10"/>
      <point x="554" y="150"/>
      <point x="554" y="314" type="curve" smooth="yes"/>
      <point x="554" y="434"/>
      <point x="481" y="533"/>
      <point x="342" y="533" type="curve" smooth="yes"/>
      <point x="152" y="533"/>
      <point x="15" y="374"/>
      <point x="15" y="208" type="curve" smooth="yes"/>
      <point x="15" y="90"/>
      <point x="87" y="-10"/>
    </contour>
    <contour>
      <point x="251" y="104" type="curve" smooth="yes"/>
      <point x="192" y="104"/>
      <point x="154" y="154"/>
      <point x="154" y="225" type="curve" smooth="yes"/>
      <point x="154" y="331"/>
      <point x="235" y="419"/>
      <point x="318" y="419" type="curve" smooth="yes"/>
      <point x="377" y="419"/>
      <point x="415" y="369"/>
      <point x="415" y="298" type="curve" smooth="yes"/>
      <point x="415" y="191"/>
      <point x="334" y="104"/>
    </contour>
  </outline>
</glyph>
<glyph name="Oinvertedbreve" format="1">
  <advance width="729"/>
  <unicode hex="020E"/>
  <outline>
    <contour>
      <point x="349" y="782" type="curve"/>
      <point x="420" y="782" type="line"/>
      <point x="430" y="832"/>
      <point x="455" y="856"/>
      <point x="493" y="856" type="curve" smooth="yes"/>
      <point x="522" y="856"/>
      <point x="535" y="841"/>
      <point x="535" y="810" type="curve" smooth="yes"/>
      <point x="535" y="802"/>
      <point x="534" y="792"/>
      <point x="533" y="782" type="curve"/>
      <point x="604" y="782" type="line"/>
      <point x="606" y="792"/>
      <point x="607" y="802"/>
      <point x="607" y="812" type="curve" smooth="yes"/>
      <point x="607" y="870"/>
      <point x="569" y="916"/>
      <point x="504" y="916" type="curve" smooth="yes"/>
      <point x="431" y="916"/>
      <point x="365" y="859"/>
    </contour>
    <contour>
      <point x="299" y="-5" type="curve" smooth="yes"/>
      <point x="517" y="-5"/>
      <point x="714" y="204"/>
      <point x="714" y="418" type="curve" smooth="yes"/>
      <point x="714" y="571"/>
      <point x="623" y="715"/>
      <point x="455" y="715" type="curve" smooth="yes"/>
      <point x="236" y="715"/>
      <point x="37" y="506"/>
      <point x="37" y="290" type="curve" smooth="yes"/>
      <point x="37" y="136"/>
      <point x="130" y="-5"/>
    </contour>
    <contour>
      <point x="326" y="117" type="curve" smooth="yes"/>
      <point x="226" y="117"/>
      <point x="177" y="203"/>
      <point x="177" y="301" type="curve" smooth="yes"/>
      <point x="177" y="436"/>
      <point x="279" y="592"/>
      <point x="426" y="592" type="curve" smooth="yes"/>
      <point x="525" y="592"/>
      <point x="574" y="507"/>
      <point x="574" y="408" type="curve" smooth="yes"/>
      <point x="574" y="275"/>
      <point x="473" y="117"/>
    </contour>
  </outline>
</glyph>
<glyph name="Rinvertedbreve" format="1">
  <advance width="642"/>
  <unicode hex="0212"/>
  <outline>
    <contour>
      <point x="288" y="782" type="curve"/>
      <point x="359" y="782" type="line"/>
      <point x="369" y="832"/>
      <point x="394" y="856"/>
      <point x="432" y="856" type="curve" smooth="yes"/>
      <point x="461" y="856"/>
      <point x="474" y="841"/>
      <point x="474" y="810" type="curve" smooth="yes"/>
      <point x="474" y="802"/>
      <point x="473" y="792"/>
      <point x="472" y="782" type="curve"/>
      <point x="543" y="782" type="line"/>
      <point x="545" y="792"/>
      <point x="546" y="802"/>
      <point x="546" y="812" type="curve" smooth="yes"/>
      <point x="546" y="870"/>
      <point x="508" y="916"/>
      <point x="443" y="916" type="curve" smooth="yes"/>
      <point x="370" y="916"/>
      <point x="304" y="859"/>
    </contour>
    <contour>
      <point x="147" y="0" type="line"/>
      <point x="197" y="238" type="line"/>
      <point x="320" y="238" type="line"/>
      <point x="404" y="0" type="line"/>
      <point x="560" y="0" type="line"/>
      <point x="464" y="267" type="line"/>
      <point x="560" y="307"/>
      <point x="632" y="411"/>
      <point x="632" y="514" type="curve" smooth="yes"/>
      <point x="632" y="614"/>
      <point x="568" y="710"/>
      <point x="461" y="710" type="curve" smooth="yes"/>
      <point x="161" y="710" type="line"/>
      <point x="10" y="0" type="line"/>
    </contour>
    <contour>
      <point x="223" y="359" type="line"/>
      <point x="272" y="589" type="line"/>
      <point x="426" y="589" type="line" smooth="yes"/>
      <point x="462" y="589"/>
      <point x="490" y="551"/>
      <point x="490" y="500" type="curve" smooth="yes"/>
      <point x="490" y="426"/>
      <point x="436" y="359"/>
      <point x="382" y="359" type="curve" smooth="yes"/>
    </contour>
  </outline>
</glyph>
<glyph name="Udblgrave" format="1">
  <advance width="719"/>
  <unicode hex="0214"/>
  <outline>
    <contour>
      <point x="522" y="781" type="line"/>
      <point x="595" y="799" type="line"/>
      <point x="575" y="918" type="line"/>
      <point x="473" y="918" type="line"/>
    </contour>
    <contour>
      <point x="366" y="781" type="line"/>
      <point x="438" y="799" type="line"/>
      <point x="420" y="918" type="line"/>
      <point x="316" y="918" type="line"/>
    </contour>
    <contour>
      <point x="295" y="-5" type="curve" smooth="yes"/>
      <point x="503" y="-5"/>
      <point x="625" y="154"/>
      <point x="666" y="348" type="curve" smooth="yes"/>
      <point x="743" y="710" type="line"/>
      <point x="606" y="710" type="line"/>
      <point x="529" y="348" type="line" smooth="yes"/>
      <point x="504" y="232"/>
      <point x="441" y="117"/>
      <point x="320" y="117" type="curve" smooth="yes"/>
      <point x="232" y="117"/>
      <point x="201" y="179"/>
      <point x="201" y="259" type="curve" smooth="yes"/>
      <point x="201" y="287"/>
      <point x="204" y="317"/>
      <point x="211" y="348" type="curve" smooth="yes"/>
      <point x="288" y="710" type="line"/>
      <point x="151" y="710" type="line"/>
      <point x="74" y="348" type="line" smooth="yes"/>
      <point x="65" y="308"/>
      <point x="61" y="271"/>
      <point x="61" y="235" type="curve" smooth="yes"/>
      <point x="61" y="100"/>
      <point x="125" y="-5"/>
    </contour>
  </outline>
</glyph>
<glyph name="uni021B" format="1">
  <advance width="373"/>
  <unicode hex="021B"/>
  <outline>
    <contour>
      <point x="127" y="-213" type="line"/>
      <point x="183" y="-141" type="line"/>
      <point x="202" y="-47" type="line"/>
      <point x="90" y="-47" type="line"/>
      <point x="69" y="-141" type="line"/>
      <point x="109" y="-141" type="line"/>
      <point x="66" y="-213" type="line"/>
    </contour>
    <contour>
      <point x="156" y="-9" type="curve" smooth="yes"/>
      <point x="209" y="-9"/>
      <point x="268" y="8"/>
      <point x="307" y="27" type="curve"/>
      <point x="303" y="133" type="line"/>
      <point x="285" y="125"/>
      <point x="256" y="114"/>
      <point x="230" y="114" type="curve" smooth="yes"/>
      <point x="208" y="114"/>
      <point x="192" y="124"/>
      <point x="192" y="149" type="curve" smooth="yes"/>
      <point x="192" y="154"/>
      <point x="193" y="159"/>
      <point x="194" y="165" type="curve" smooth="yes"/>
      <point x="249" y="421" type="line"/>
      <point x="353" y="421" type="line"/>
      <point x="375" y="524" type="line"/>
      <point x="270" y="524" type="line"/>
      <point x="306" y="694" type="line"/>
      <point x="172" y="694" type="line"/>
      <point x="136" y="524" type="line"/>
      <point x="72" y="524" type="line"/>
      <point x="50" y="421" type="line"/>
      <point x="115" y="421" type="line"/>
      <point x="51" y="120" type="line" smooth="yes"/>
      <point x="48" y="107"/>
      <point x="47" y="95"/>
      <point x="47" y="83" type="curve" smooth="yes"/>
      <point x="47" y="18"/>
      <point x="93" y="-9"/>
    </contour>
  </outline>
</glyph>
<glyph name="Ddotbelow" format="1">
  <advance width="692"/>
  <unicode hex="1E0C"/>
  <outline>
    <contour>
      <point x="286" y="-196" type="line"/>
      <point x="313" y="-70" type="line"/>
      <point x="193" y="-70" type="line"/>
      <point x="166" y="-196" type="line"/>
    </contour>
    <contour>
      <point x="10" y="0" type="line"/>
      <point x="257" y="0" type="line" smooth="yes"/>
      <point x="497" y="0"/>
      <point x="676" y="185"/>
      <point x="676" y="435" type="curve" smooth="yes"/>
      <point x="676" y="589"/>
      <point x="591" y="710"/>
      <point x="408" y="710" type="curve" smooth="yes"/>
      <point x="161" y="710" type="line"/>
    </contour>
    <contour>
      <point x="173" y="121" type="line"/>
      <point x="272" y="589" type="line"/>
      <point x="382" y="589" type="line" smooth="yes"/>
      <point x="482" y="589"/>
      <point x="534" y="518"/>
      <point x="534" y="415" type="curve" smooth="yes"/>
      <point x="534" y="259"/>
      <point x="435" y="121"/>
      <point x="282" y="121" type="curve" smooth="yes"/>
    </contour>
  </outline>
</glyph>
<glyph name="ndotaccent" format="1">
  <advance width="582"/>
  <unicode hex="1E45"/>
  <outline>
    <contour>
      <point x="406" y="604" type="line"/>
      <point x="432" y="730" type="line"/>
      <point x="312" y="730" type="line"/>
      <point x="285" y="604" type="line"/>
    </contour>
    <contour>
      <point x="-4" y="0" type="line"/>
      <point x="130" y="0" type="line"/>
      <point x="195" y="306" type="line"/>
      <point x="227" y="369"/>
      <point x="293" y="415"/>
      <point x="342" y="415" type="curve" smooth="yes"/>
      <point x="377" y="415"/>
      <point x="399" y="393"/>
      <point x="399" y="347" type="curve" smooth="yes"/>
      <point x="399" y="332"/>
      <point x="396" y="314"/>
      <point x="392" y="294" type="curve" smooth="yes"/>
      <point x="330" y="0" type="line"/>
      <point x="464" y="0" type="line"/>
      <point x="533" y="327" type="line" smooth="yes"/>
      <point x="539" y="356"/>
      <point x="543" y="385"/>
      <point x="543" y="412" type="curve" smooth="yes"/>
      <point x="543" y="480"/>
      <point x="516" y="533"/>
      <point x="426" y="533" type="curve" smooth="yes"/>
      <point x="340" y="533"/>
      <point x="258" y="493"/>
      <point x="207" y="427" type="curve"/>
      <point x="228" y="524" type="line"/>
      <point x="107" y="524" type="line"/>
    </contour>
  </outline>
</glyph>
<glyph name="wdieresis" format="1">
  <advance width="790"/>
  <unicode hex="1E85"/>
  <outline>
    <contour>
      <point x="406" y="604" type="line"/>
      <point x="432" y="723" type="line"/>
      <point x="321" y="723" type="line"/>
      <point x="295" y="604" type="line"/>
    </contour>
    <contour>
      <point x="594" y="604" type="line"/>
      <point x="618" y="723" type="line"/>
      <point x="508" y="723" type="line"/>
      <point x="483" y="604" type="line"/>
    </contour>
    <contour>
      <point x="143" y="0" type="line"/>
      <point x="265" y="0" type="line"/>
      <point x="287" y="27"/>
      <point x="355" y="144"/>
      <point x="374" y="171" type="curve"/>
      <point x="403" y="0" type="line"/>
      <point x="504" y="0" type="line"/>
      <point x="651" y="174"/>
      <point x="760" y="350"/>
      <point x="819" y="524" type="curve"/>
      <point x="696" y="524" type="line"/>
      <point x="646" y="379"/>
      <point x="596" y="288"/>
      <point x="488" y="143" type="curve"/>
      <point x="462" y="263" type="line"/>
      <point x="517" y="348"/>
      <point x="557" y="430"/>
      <point x="589" y="524" type="curve"/>
      <point x="480" y="524" type="line"/>
      <point x="472" y="493"/>
      <point x="426" y="392"/>
      <point x="410" y="362" type="curve"/>
      <point x="384" y="524" type="line"/>
      <point x="267" y="524" type="line"/>
      <point x="323" y="262" type="line"/>
      <point x="304" y="232"/>
      <point x="259" y="150"/>
      <point x="236" y="120" type="curve"/>
      <point x="173" y="524" type="line"/>
      <point x="42" y="524" type="line"/>
    </contour>
  </outline>
</glyph>
<glyph name="edotbelow" format="1">
  <advance width="551"/>
  <unicode hex="1EB9"/>
  <outline>
    <contour>
      <point x="230" y="-10" type="curve" smooth="yes"/>
      <point x="334" y="-10"/>
      <point x="438" y="46"/>
      <point x="492" y="127" type="curve"/>
      <point x="386" y="160" type="line"/>
      <point x="358" y="115"/>
      <point x="307" y="88"/>
      <point x="254" y="88" type="curve" smooth="yes"/>
      <point x="185" y="88"/>
      <point x="154" y="137"/>
      <point x="154" y="207" type="curve" smooth="yes"/>
      <point x="154" y="220" type="line"/>
      <point x="182" y="218"/>
      <point x="207" y="218"/>
      <point x="231" y="218" type="curve" smooth="yes"/>
      <point x="432" y="218"/>
      <point x="533" y="275"/>
      <point x="533" y="387" type="curve" smooth="yes"/>
      <point x="533" y="481"/>
      <point x="460" y="533"/>
      <point x="347" y="533" type="curve" smooth="yes"/>
      <point x="160" y="533"/>
      <point x="16" y="385"/>
      <point x="16" y="211" type="curve" smooth="yes"/>
      <point x="16" y="83"/>
      <point x="97" y="-10"/>
    </contour>
    <contour>
      <point x="327" y="436" type="curve" smooth="yes"/>
      <point x="374" y="436"/>
      <point x="406" y="416"/>
      <point x="406" y="378" type="curve" smooth="yes"/>
      <point x="406" y="331"/>
      <point x="361" y="303"/>
      <point x="232" y="303" type="curve" smooth="yes"/>
      <point x="211" y="303"/>
      <point x="191" y="303"/>
      <point x="170" y="304" type="curve"/>
      <point x="195" y="377"/>
      <point x="249" y="436"/>
    </contour>
    <contour>
      <point x="254" y="-196" type="line"/>
      <point x="281" y="-70" type="line"/>
      <point x="161" y="-70" type="line"/>
      <point x="134" y="-196" type="line"/>
    </contour>
  </outline>
</glyph>
<glyph name="Ytilde" format="1">
  <advance width="619"/>
  <unicode hex="1EF8"/>
  <outline>
    <contour>
      <point x="172" y="0" type="line"/>
      <point x="309" y="0" type="line"/>
      <point x="361" y="248" type="line"/>
      <point x="704" y="710" type="line"/>
      <point x="555" y="710" type="line"/>
      <point x="319" y="368" type="line"/>
      <point x="231" y="710" type="line"/>
      <point x="81" y="710" type="line"/>
      <point x="225" y="250" type="line"/>
    </contour>
    <contour>
      <point x="464" y="788" type="curve" smooth="yes"/>
      <point x="554" y="788"/>
      <point x="606" y="897"/>
      <point x="610" y="916" type="curve"/>
      <point x="537" y="916" type="line"/>
      <point x="536" y="912"/>
      <point x="521" y="866"/>
      <point x="476" y="866" type="curve" smooth="yes"/>
      <point x="431" y="866"/>
      <point x="419" y="913"/>
      <point x="361" y="913" type="curve" smooth="yes"/>
      <point x="275" y="913"/>
      <point x="225" y="810"/>
      <point x="220" y="785" type="curve"/>
      <point x="294" y="785" type="line"/>
      <point x="294" y="788"/>
      <point x="306" y="833"/>
      <point x="348" y="833" type="curve" smooth="yes"/>
      <point x="390" y="833"/>
      <point x="407" y="788"/>
    </contour>
  </outline>
</glyph>
<glyph name="ytilde" format="1">
  <advance width="520"/>
  <unicode hex="1EF9"/>
  <outline>
    <contour>
      <point x="-28" y="-229" type="line"/>
      <point x="89" y="-227"/>
      <point x="164" y="-176"/>
      <point x="257" y="-26" type="curve" smooth="yes"/>
      <point x="337" y="103" type="line" smooth="yes"/>
      <point x="469" y="316"/>
      <point x="507" y="395"/>
      <point x="543" y="524" type="curve"/>
      <point x="413" y="524" type="line"/>
      <point x="385" y="403"/>
      <point x="345" y="308"/>
      <point x="263" y="172" type="curve" smooth="yes"/>
      <point x="229" y="116" type="line"/>
      <point x="184" y="524" type="line"/>
      <point x="47" y="524" type="line"/>
      <point x="134" y="-11" type="line"/>
      <point x="105" y="-50" type="line" smooth="yes"/>
      <point x="64" y="-106"/>
      <point x="36" y="-119"/>
      <point x="-44" y="-126" type="curve"/>
    </contour>
    <contour>
      <point x="371" y="602" type="curve" smooth="yes"/>
      <point x="461" y="602"/>
      <point x="513" y="711"/>
      <point x="517" y="730" type="curve"/>
      <point x="444" y="730" type="line"/>
      <point x="443" y="726"/>
      <point x="428" y="680"/>
      <point x="383" y="680" type="curve" smooth="yes"/>
      <point x="338" y="680"/>
      <point x="326" y="727"/>
      <point x="268" y="727" type="curve" smooth="yes"/>
      <point x="182" y="727"/>
      <point x="132" y="624"/>
      <point x="127" y="599" type="curve"/>
      <point x="201" y="599" type="line"/>
      <point x="201" y="602"/>
      <point x="213" y="647"/>
      <point x="255" y="647" type="curve" smooth="yes"/>
      <point x="297" y="647"/>
      <point x="314" y="602"/>
    </contour>
  </outline>
</glyph>
<glyph name="dagger" format="1">
  <advance width="449"/>
  <unicode hex="2020"/>
  <outline>
    <contour>
      <point x="197" y="-130" type="line"/>
      <point x="269" y="211" type="line"/>
      <point x="394" y="211" type="line"/>
      <point x="420" y="331" type="line"/>
      <point x="295" y="331" type="line"/>
      <point x="389" y="775" type="line"/>
      <point x="262" y="775" type="line"/>
      <point x="168" y="331" type="line"/>
      <point x="42" y="331" type="line"/>
      <point x="17" y="211" type="line"/>
      <point x="142" y="211" type="line"/>
      <point x="70" y="-130" type="line"/>
    </contour>
  </outline>
</glyph>
<glyph name="zerosuperior" format="1">
  <advance width="471"/>
  <unicode hex="2070"/>
  <outline>
    <contour>
      <point x="254" y="388" type="curve" smooth="yes"/>
      <point x="397" y="388"/>
      <point x="507" y="522"/>
      <point x="507" y="636" type="curve" smooth="yes"/>
      <point x="507" y="719"/>
      <point x="459" y="815"/>
      <point x="345" y="815" type="curve" smooth="yes"/>
      <point x="203" y="815"/>
      <point x="91" y="679"/>
      <point x="91" y="564" type="curve" smooth="yes"/>
      <point x="91" y="481"/>
      <point x="140" y="388"/>
    </contour>
    <contour>
      <point x="174" y="575" type="curve" smooth="yes"/>
      <point x="174" y="639"/>
      <point x="231" y="735"/>
      <point x="328" y="735" type="curve" smooth="yes"/>
      <point x="394" y="735"/>
      <point x="425" y="680"/>
      <point x="425" y="626" type="curve" smooth="yes"/>
      <point x="425" y="562"/>
      <point x="368" y="467"/>
      <point x="271" y="467" type="curve" smooth="yes"/>
      <point x="203" y="467"/>
      <point x="174" y="522"/>
    </contour>
  </outline>
</glyph>
<glyph name="Euro" format="1">
  <advance width="762"/>
  <unicode hex="20AC"/>
  <outline>
    <contour>
      <point x="105" y="441" type="line"/>
      <point x="59" y="367" type="line"/>
      <point x="124" y="367" type="line"/>
      <point x="121" y="350"/>
      <point x="119" y="333"/>
      <point x="118" y="316" type="curve"/>
      <point x="67" y="316" type="line"/>
      <point x="22" y="242" type="line"/>
      <point x="121" y="242" type="line"/>
      <point x="140" y="108"/>
      <point x="229" y="-6"/>
      <point x="375" y="-6" type="curve" smooth="yes"/>
      <point x="485" y="-6"/>
      <point x="625" y="53"/>
      <point x="689" y="159" type="curve"/>
      <point x="590" y="224" type="line"/>
      <point x="543" y="147"/>
      <point x="465" y="116"/>
      <point x="405" y="116" type="curve" smooth="yes"/>
      <point x="330" y="116"/>
      <point x="282" y="170"/>
      <point x="264" y="242" type="curve"/>
      <point x="428" y="242" type="line"/>
      <point x="473" y="316" type="line"/>
      <point x="257" y="316" type="line"/>
      <point x="258" y="332"/>
      <point x="260" y="350"/>
      <point x="264" y="367" type="curve"/>
      <point x="485" y="367" type="line"/>
      <point x="530" y="441" type="line"/>
      <point x="290" y="441" type="line"/>
      <point x="330" y="524"/>
      <point x="405" y="592"/>
      <point x="504" y="592" type="curve" smooth="yes"/>
      <point x="563" y="592"/>
      <point x="628" y="566"/>
      <point x="643" y="486" type="curve"/>
      <point x="765" y="559" type="line"/>
      <point x="740" y="651"/>
      <point x="658" y="714"/>
      <point x="534" y="714" type="curve" smooth="yes"/>
      <point x="353" y="714"/>
      <point x="208" y="587"/>
      <point x="147" y="441" type="curve"/>
    </contour>
  </outline>
</glyph>
<glyph name="onethird" format="1">
  <advance width="863"/>
  <unicode hex="2153"/>
  <outline>
    <contour>
      <point x="112" y="-7" type="line"/>
      <point x="440" y="340" type="line"/>
      <point x="769" y="664" type="line"/>
      <point x="720" y="718" type="line"/>
      <point x="401" y="376" type="line"/>
      <point x="64" y="47" type="line"/>
    </contour>
    <contour>
      <point x="229" y="384" type="line"/>
      <point x="303" y="731" type="line"/>
      <point x="223" y="731" type="line"/>
      <point x="222" y="728"/>
      <point x="161" y="674"/>
      <point x="121" y="674" type="curve"/>
      <point x="104" y="594" type="line"/>
      <point x="134" y="594"/>
      <point x="187" y="627"/>
      <point x="205" y="645" type="curve"/>
      <point x="150" y="384" type="line"/>
      <point x="75" y="384" type="line"/>
      <point x="58" y="306" type="line"/>
      <point x="279" y="306" type="line"/>
      <point x="296" y="384" type="line"/>
    </contour>
    <contour>
      <point x="587" y="-5" type="curve" smooth="yes"/>
      <point x="685" y="-5"/>
      <point x="789" y="38"/>
      <point x="789" y="133" type="curve" smooth="yes"/>
      <point x="789" y="177"/>
      <point x="761" y="214"/>
      <point x="709" y="222" type="curve"/>
      <point x="778" y="234"/>
      <point x="821" y="272"/>
      <point x="821" y="327" type="curve" smooth="yes"/>
      <point x="821" y="384"/>
      <point x="764" y="427"/>
      <point x="680" y="427" type="curve" smooth="yes"/>
      <point x="616" y="427"/>
      <point x="547" y="406"/>
      <point x="510" y="367" type="curve"/>
      <point x="547" y="304" type="line"/>
      <point x="577" y="333"/>
      <point x="614" y="353"/>
      <point x="665" y="353" type="curve" smooth="yes"/>
      <point x="697" y="353"/>
      <point x="734" y="340"/>
      <point x="734" y="313" type="curve" smooth="yes"/>
      <point x="734" y="272"/>
      <point x="676" y="254"/>
      <point x="594" y="254" type="curve" smooth="yes"/>
      <point x="572" y="254" type="line"/>
      <point x="557" y="182" type="line"/>
      <point x="580" y="182" type="line" smooth="yes"/>
      <point x="661" y="182"/>
      <point x="709" y="166"/>
      <point x="709" y="132" type="curve" smooth="yes"/>
      <point x="709" y="95"/>
      <point x="659" y="74"/>
      <point x="602" y="74" type="curve" smooth="yes"/>
      <point x="533" y="74"/>
      <point x="504" y="115"/>
      <point x="502" y="132" type="curve"/>
      <point x="447" y="74" type="line"/>
      <point x="454" y="22"/>
      <point x="508" y="-5"/>
    </contour>
  </outline>
</glyph>
<glyph name="twothirds" format="1">
  <advance width="881"/>
  <unicode hex="2154"/>
  <outline>
    <contour>
      <point x="354" y="305" type="line"/>
      <point x="371" y="383" type="line"/>
      <point x="180" y="383" type="line"/>
      <point x="187" y="414"/>
      <point x="216" y="444"/>
      <point x="279" y="464" type="curve" smooth="yes"/>
      <point x="363" y="491"/>
      <point x="431" y="532"/>
      <point x="431" y="625" type="curve" smooth="yes"/>
      <point x="431" y="691"/>
      <point x="386" y="731"/>
      <point x="301" y="731" type="curve" smooth="yes"/>
      <point x="210" y="731"/>
      <point x="141" y="689"/>
      <point x="116" y="662" type="curve"/>
      <point x="152" y="605" type="line"/>
      <point x="179" y="627"/>
      <point x="222" y="654"/>
      <point x="275" y="654" type="curve" smooth="yes"/>
      <point x="318" y="654"/>
      <point x="342" y="637"/>
      <point x="342" y="609" type="curve" smooth="yes"/>
      <point x="342" y="549"/>
      <point x="269" y="530"/>
      <point x="200" y="503" type="curve" smooth="yes"/>
      <point x="103" y="463"/>
      <point x="62" y="414"/>
      <point x="40" y="305" type="curve"/>
    </contour>
    <contour>
      <point x="166" y="-7" type="line"/>
      <point x="494" y="340" type="line"/>
      <point x="823" y="664" type="line"/>
      <point x="774" y="718" type="line"/>
      <point x="455" y="376" type="line"/>
      <point x="118" y="47" type="line"/>
    </contour>
    <contour>
      <point x="603" y="-5" type="curve" smooth="yes"/>
      <point x="701" y="-5"/>
      <point x="805" y="38"/>
      <point x="805" y="133" type="curve" smooth="yes"/>
      <point x="805" y="177"/>
      <point x="777" y="214"/>
      <point x="725" y="222" type="curve"/>
      <point x="794" y="234"/>
      <point x="837" y="272"/>
      <point x="837" y="327" type="curve" smooth="yes"/>
      <point x="837" y="384"/>
      <point x="780" y="427"/>
      <point x="696" y="427" type="curve" smooth="yes"/>
      <point x="632" y="427"/>
      <point x="563" y="406"/>
      <point x="526" y="367" type="curve"/>
      <point x="563" y="304" type="line"/>
      <point x="593" y="333"/>
      <point x="630" y="353"/>
      <point x="681" y="353" type="curve" smooth="yes"/>
      <point x="713" y="353"/>
      <point x="750" y="340"/>
      <point x="750" y="313" type="curve" smooth="yes"/>
      <point x="750" y="272"/>
      <point x="692" y="254"/>
      <point x="610" y="254" type="curve" smooth="yes"/>
      <point x="588" y="254" type="line"/>
      <point x="573" y="182" type="line"/>
      <point x="596" y="182" type="line" smooth="yes"/>
      <point x="677" y="182"/>
      <point x="725" y="166"/>
      <point x="725" y="132" type="curve" smooth="yes"/>
      <point x="725" y="95"/>
      <point x="675" y="74"/>
      <point x="618" y="74" type="curve" smooth="yes"/>
      <point x="549" y="74"/>
      <point x="520" y="115"/>
      <point x="518" y="132" type="curve"/>
      <point x="463" y="74" type="line"/>
      <point x="470" y="22"/>
      <point x="524" y="-5"/>
    </contour>
  </outline>
</glyph>
<glyph name="oneeighth" format="1">
  <advance width="866"/>
  <unicode hex="215B"/>
  <outline>
    <contour>
      <point x="123" y="-7" type="line"/>
      <point x="451" y="340" type="line"/>
      <point x="780" y="664" type="line"/>
      <point x="731" y="718" type="line"/>
      <point x="412" y="376" type="line"/>
      <point x="75" y="47" type="line"/>
    </contour>
    <contour>
      <point x="228" y="384" type="line"/>
      <point x="302" y="731" type="line"/>
      <point x="222" y="731" type="line"/>
      <point x="221" y="728"/>
      <point x="160" y="674"/>
      <point x="120" y="674" type="curve"/>
      <point x="103" y="594" type="line"/>
      <point x="133" y="594"/>
      <point x="186" y="627"/>
      <point x="204" y="645" type="curve"/>
      <point x="149" y="384" type="line"/>
      <point x="74" y="384" type="line"/>
      <point x="57" y="306" type="line"/>
      <point x="278" y="306" type="line"/>
      <point x="295" y="384" type="line"/>
    </contour>
    <contour>
      <point x="595" y="-5" type="curve" smooth="yes"/>
      <point x="697" y="-5"/>
      <point x="796" y="57"/>
      <point x="796" y="140" type="curve" smooth="yes"/>
      <point x="796" y="180"/>
      <point x="770" y="208"/>
      <point x="735" y="226" type="curve"/>
      <point x="781" y="243"/>
      <point x="820" y="275"/>
      <point x="820" y="322" type="curve" smooth="yes"/>
      <point x="820" y="382"/>
      <point x="753" y="421"/>
      <point x="685" y="421" type="curve" smooth="yes"/>
      <point x="605" y="421"/>
      <point x="505" y="369"/>
      <point x="505" y="294" type="curve" smooth="yes"/>
      <point x="505" y="260"/>
      <point x="526" y="238"/>
      <point x="554" y="226" type="curve"/>
      <point x="500" y="204"/>
      <point x="450" y="170"/>
      <point x="450" y="107" type="curve" smooth="yes"/>
      <point x="450" y="43"/>
      <point x="510" y="-5"/>
    </contour>
    <contour>
      <point x="613" y="74" type="curve" smooth="yes"/>
      <point x="572" y="74"/>
      <point x="532" y="93"/>
      <point x="532" y="125" type="curve" smooth="yes"/>
      <point x="532" y="163"/>
      <point x="585" y="190"/>
      <point x="636" y="190" type="curve" smooth="yes"/>
      <point x="678" y="190"/>
      <point x="716" y="170"/>
      <point x="716" y="139" type="curve" smooth="yes"/>
      <point x="716" y="100"/>
      <point x="662" y="74"/>
    </contour>
    <contour>
      <point x="650" y="255" type="curve" smooth="yes"/>
      <point x="617" y="255"/>
      <point x="583" y="270"/>
      <point x="583" y="294" type="curve" smooth="yes"/>
      <point x="583" y="325"/>
      <point x="626" y="345"/>
      <point x="669" y="345" type="curve" smooth="yes"/>
      <point x="706" y="345"/>
      <point x="737" y="329"/>
      <point x="737" y="305" type="curve" smooth="yes"/>
      <point x="737" y="274"/>
      <point x="689" y="255"/>
    </contour>
  </outline>
</glyph>
<glyph name="seveneighths" format="1">
  <advance width="855"/>
  <unicode hex="215E"/>
  <outline>
    <contour>
      <point x="80" y="-7" type="line"/>
      <point x="408" y="340" type="line"/>
      <point x="737" y="664" type="line"/>
      <point x="688" y="718" type="line"/>
      <point x="369" y="376" type="line"/>
      <point x="32" y="47" type="line"/>
    </contour>
    <contour>
      <point x="584" y="-5" type="curve" smooth="yes"/>
      <point x="686" y="-5"/>
      <point x="785" y="57"/>
      <point x="785" y="140" type="curve" smooth="yes"/>
      <point x="785" y="180"/>
      <point x="759" y="208"/>
      <point x="724" y="226" type="curve"/>
      <point x="770" y="243"/>
      <point x="809" y="275"/>
      <point x="809" y="322" type="curve" smooth="yes"/>
      <point x="809" y="382"/>
      <point x="742" y="421"/>
      <point x="674" y="421" type="curve" smooth="yes"/>
      <point x="594" y="421"/>
      <point x="494" y="369"/>
      <point x="494" y="294" type="curve" smooth="yes"/>
      <point x="494" y="260"/>
      <point x="515" y="238"/>
      <point x="543" y="226" type="curve"/>
      <point x="489" y="204"/>
      <point x="439" y="170"/>
      <point x="439" y="107" type="curve" smooth="yes"/>
      <point x="439" y="43"/>
      <point x="499" y="-5"/>
    </contour>
    <contour>
      <point x="602" y="74" type="curve" smooth="yes"/>
      <point x="561" y="74"/>
      <point x="521" y="93"/>
      <point x="521" y="125" type="curve" smooth="yes"/>
      <point x="521" y="163"/>
      <point x="574" y="190"/>
      <point x="625" y="190" type="curve" smooth="yes"/>
      <point x="667" y="190"/>
      <point x="705" y="170"/>
      <point x="705" y="139" type="curve" smooth="yes"/>
      <point x="705" y="100"/>
      <point x="651" y="74"/>
    </contour>
    <contour>
      <point x="639" y="255" type="curve" smooth="yes"/>
      <point x="606" y="255"/>
      <point x="572" y="270"/>
      <point x="572" y="294" type="curve" smooth="yes"/>
      <point x="572" y="325"/>
      <point x="615" y="345"/>
      <point x="658" y="345" type="curve" smooth="yes"/>
      <point x="695" y="345"/>
      <point x="726" y="329"/>
      <point x="726" y="305" type="curve" smooth="yes"/>
      <point x="726" y="274"/>
      <point x="678" y="255"/>
    </contour>
    <contour>
      <point x="65" y="310" type="line"/>
      <point x="154" y="310" type="line"/>
      <point x="480" y="730" type="line"/>
      <point x="131" y="730" type="line"/>
      <point x="114" y="651" type="line"/>
      <point x="340" y="651" type="line"/>
    </contour>
  </outline>
</glyph>
<glyph name="partialdiff" format="1">
  <advance width="570"/>
  <unicode hex="2202"/>
  <outline>
    <contour>
      <point x="254" y="-10" type="curve" smooth="yes"/>
      <point x="423" y="-10"/>
      <point x="535" y="135"/>
      <point x="535" y="390" type="curve" smooth="yes"/>
      <point x="535" y="610"/>
      <point x="450" y="715"/>
      <point x="298" y="715" type="curve" smooth="yes"/>
      <point x="220" y="715"/>
      <point x="148" y="688"/>
      <point x="97" y="641" type="curve"/>
      <point x="171" y="563" type="line"/>
      <point x="196" y="588"/>
      <point x="245" y="604"/>
      <point x="287" y="604" type="curve" smooth="yes"/>
      <point x="364" y="604"/>
      <point x="411" y="550"/>
      <point x="411" y="411" type="curve" smooth="yes"/>
      <point x="411" y="399"/>
      <point x="410" y="385"/>
      <point x="410" y="371" type="curve"/>
      <point x="388" y="413"/>
      <point x="340" y="438"/>
      <point x="278" y="438" type="curve" smooth="yes"/>
      <point x="144" y="438"/>
      <point x="22" y="331"/>
      <point x="22" y="200" type="curve" smooth="yes"/>
      <point x="22" y="81"/>
      <point x="119" y="-10"/>
    </contour>
    <contour>
      <point x="261" y="94" type="curve" smooth="yes"/>
      <point x="199" y="94"/>
      <point x="151" y="144"/>
      <point x="151" y="207" type="curve" smooth="yes"/>
      <point x="151" y="278"/>
      <point x="211" y="336"/>
      <point x="281" y="336" type="curve" smooth="yes"/>
      <point x="343" y="336"/>
      <point x="392" y="289"/>
      <point x="392" y="227" type="curve" smooth="yes"/>
      <point x="392" y="156"/>
      <point x="330" y="94"/>
    </contour>
  </outline>
</glyph>
<glyph name="summation" format="1">
  <advance width="624"/>
  <unicode hex="2211"/>
  <outline>
    <contour>
      <point x="557" y="710" type="line"/>
      <point x="77" y="710" type="line"/>
      <point x="77" y="623" type="line"/>
      <point x="284" y="356" type="line"/>
      <point x="70" y="91" type="line"/>
      <point x="70" y="0" type="line"/>
      <point x="565" y="0" type="line"/>
      <point x="565" y="116" type="line"/>
      <point x="223" y="116" type="line"/>
      <point x="223" y="120" type="line"/>
      <point x="420" y="369" type="line"/>
      <point x="239" y="603" type="line"/>
      <point x="239" y="607" type="line"/>
      <point x="557" y="607" type="line"/>
    </contour>
  </outline>
</glyph>
<glyph name="lozenge" format="1">
  <advance width="565"/>
  <unicode hex="25CA"/>
  <outline>
    <contour>
      <point x="222" y="730" type="line"/>
      <point x="36" y="366" type="line"/>
      <point x="222" y="0" type="line"/>
      <point x="370" y="0" type="line"/>
      <point x="556" y="366" type="line"/>
      <point x="370" y="730" type="line"/>
    </contour>
    <contour>
      <point x="304" y="92" type="line"/>
      <point x="164" y="375" type="line"/>
      <point x="295" y="634" type="line"/>
      <point x="437" y="354" type="line"/>
    </contour>
  </outline>
</glyph>
<glyph name="B.sc" format="1">
  <advance width="576"/>
  <outline>
    <contour>
      <point x="4" y="0" type="line"/>
      <point x="286" y="0" type="line" smooth="yes"/>
      <point x="404" y="0"/>
      <point x="512" y="58"/>
      <point x="512" y="174" type="curve" smooth="yes"/>
      <point x="512" y="231"/>
      <point x="482" y="271"/>
      <point x="430" y="287" type="curve"/>
      <point x="500" y="314"/>
      <point x="544" y="378"/>
      <point x="544" y="441" type="curve" smooth="yes"/>
      <point x="544" y="501"/>
      <point x="508" y="559"/>
      <point x="438" y="559" type="curve" smooth="yes"/>
      <point x="122" y="559" type="line"/>
    </contour>
    <contour>
      <point x="146" y="102" type="line"/>
      <point x="174" y="235" type="line"/>
      <point x="341" y="235" type="line" smooth="yes"/>
      <point x="372" y="235"/>
      <point x="392" y="210"/>
      <point x="392" y="180" type="curve" smooth="yes"/>
      <point x="392" y="136"/>
      <point x="351" y="102"/>
      <point x="307" y="102" type="curve" smooth="yes"/>
    </contour>
    <contour>
      <point x="194" y="330" type="line"/>
      <point x="221" y="455" type="line"/>
      <point x="370" y="455" type="line" smooth="yes"/>
      <point x="398" y="455"/>
      <point x="418" y="437"/>
      <point x="418" y="406" type="curve" smooth="yes"/>
      <point x="418" y="356"/>
      <point x="380" y="330"/>
      <point x="339" y="330" type="curve" smooth="yes"/>
    </contour>
  </outline>
</glyph>
<glyph name="D.sc" format="1">
  <advance width="613"/>
  <outline>
    <contour>
      <point x="294" y="707" type="move" name="top"/>
    </contour>
    <contour>
      <point x="4" y="0" type="line"/>
      <point x="221" y="0" type="line" smooth="yes"/>
      <point x="426" y="0"/>
      <point x="580" y="141"/>
      <point x="580" y="337" type="curve" smooth="yes"/>
      <point x="580" y="461"/>
      <point x="503" y="559"/>
      <point x="339" y="559" type="curve" smooth="yes"/>
      <point x="122" y="559" type="line"/>
    </contour>
    <contour>
      <point x="146" y="106" type="line"/>
      <point x="220" y="453" type="line"/>
      <point x="317" y="453" type="line" smooth="yes"/>
      <point x="407" y="453"/>
      <point x="455" y="398"/>
      <point x="455" y="318" type="curve" smooth="yes"/>
      <point x="455" y="204"/>
      <point x="373" y="106"/>
      <point x="243" y="106" type="curve" smooth="yes"/>
    </contour>
  </outline>
</glyph>
<glyph name="H.sc" format="1">
  <advance width="636"/>
  <outline>
    <contour>
      <point x="308" y="707" type="move" name="top"/>
    </contour>
    <contour>
      <point x="4" y="0" type="line"/>
      <point x="124" y="0" type="line"/>
      <point x="174" y="232" type="line"/>
      <point x="433" y="232" type="line"/>
      <point x="383" y="0" type="line"/>
      <point x="504" y="0" type="line"/>
      <point x="623" y="559" type="line"/>
      <point x="502" y="559" type="line"/>
      <point x="455" y="339" type="line"/>
      <point x="196" y="339" type="line"/>
      <point x="243" y="559" type="line"/>
      <point x="122" y="559" type="line"/>
    </contour>
  </outline>
</glyph>
<glyph name="L.sc" format="1">
  <advance width="465"/>
  <outline>
    <contour>
      <point x="272" y="707" type="move" name="top"/>
    </contour>
    <contour>
      <point x="272" y="0" type="move" name="bottom"/>
    </contour>
    <contour>
      <point x="4" y="0" type="line"/>
      <point x="391" y="0" type="line"/>
      <point x="414" y="106" type="line"/>
      <point x="146" y="106" type="line"/>
      <point x="243" y="559" type="line"/>
      <point x="122" y="559" type="line"/>
    </contour>
  </outline>
</glyph>
<glyph name="V.sc" format="1">
  <advance width="571"/>
  <outline>
    <contour>
      <point x="168" y="0" type="line"/>
      <point x="270" y="0" type="line"/>
      <point x="618" y="559" type="line"/>
      <point x="490" y="559" type="line"/>
      <point x="256" y="170" type="line"/>
      <point x="184" y="559" type="line"/>
      <point x="56" y="559" type="line"/>
    </contour>
  </outline>
</glyph>
<glyph name="five.lnum" format="1">
  <advance width="547"/>
  <outline>
    <contour>
      <point x="191" y="-10" type="curve" smooth="yes"/>
      <point x="356" y="-10"/>
      <point x="498" y="112"/>
      <point x="498" y="276" type="curve" smooth="yes"/>
      <point x="498" y="384"/>
      <point x="427" y="459"/>
      <point x="318" y="459" type="curve" smooth="yes"/>
      <point x="277" y="459"/>
      <point x="247" y="447"/>
      <point x="229" y="429" type="curve"/>
      <point x="288" y="588" type="line"/>
      <point x="524" y="588" type="line"/>
      <point x="551" y="710" type="line"/>
      <point x="217" y="710" type="line"/>
      <point x="189" y="644"/>
      <point x="84" y="370"/>
      <point x="50" y="288" type="curve"/>
      <point x="166" y="288" type="line"/>
      <point x="194" y="323"/>
      <point x="235" y="344"/>
      <point x="275" y="344" type="curve" smooth="yes"/>
      <point x="325" y="344"/>
      <point x="357" y="307"/>
      <point x="357" y="253" type="curve" smooth="yes"/>
      <point x="357" y="171"/>
      <point x="293" y="109"/>
      <point x="216" y="109" type="curve" smooth="yes"/>
      <point x="161" y="109"/>
      <point x="113" y="142"/>
      <point x="89" y="194" type="curve"/>
      <point x="-5" y="114" type="line"/>
      <point x="20" y="37"/>
      <point x="93" y="-10"/>
    </contour>
  </outline>
</glyph>
<glyph name="four.denominator" format="1">
  <advance width="395"/>
  <outline>
    <contour>
      <point x="168" y="0" type="line"/>
      <point x="246" y="0" type="line"/>
      <point x="266" y="93" type="line"/>
      <point x="324" y="93" type="line"/>
      <point x="341" y="171" type="line"/>
      <point x="282" y="171" type="line"/>
      <point x="336" y="422" type="line"/>
      <point x="282" y="422" type="line"/>
      <point x="-6" y="170" type="line"/>
      <point x="-22" y="93" type="line"/>
      <point x="187" y="93" type="line"/>
    </contour>
    <contour>
      <point x="71" y="171" type="line"/>
      <point x="239" y="324" type="line"/>
      <point x="207" y="171" type="line"/>
    </contour>
  </outline>
</glyph>
<glyph name="one.lnum" format="1">
  <advance width="474"/>
  <outline>
    <contour>
      <point x="0" y="0" type="line"/>
      <point x="390" y="0" type="line"/>
      <point x="415" y="121" type="line"/>
      <point x="295" y="121" type="line"/>
      <point x="421" y="717" type="line"/>
      <point x="284" y="717" type="line"/>
      <point x="282" y="713"/>
      <point x="178" y="621"/>
      <point x="110" y="621" type="curve"/>
      <point x="84" y="497" type="line"/>
      <point x="135" y="497"/>
      <point x="229" y="552"/>
      <point x="256" y="583" type="curve"/>
      <point x="158" y="121" type="line"/>
      <point x="26" y="121" type="line"/>
    </contour>
  </outline>
</glyph>
<glyph name="one.numerator" format="1">
  <advance width="289"/>
  <outline>
    <contour>
      <point x="219" y="384" type="line"/>
      <point x="293" y="731" type="line"/>
      <point x="213" y="731" type="line"/>
      <point x="212" y="728"/>
      <point x="151" y="674"/>
      <point x="111" y="674" type="curve"/>
      <point x="94" y="594" type="line"/>
      <point x="124" y="594"/>
      <point x="177" y="627"/>
      <point x="195" y="645" type="curve"/>
      <point x="140" y="384" type="line"/>
      <point x="65" y="384" type="line"/>
      <point x="48" y="306" type="line"/>
      <point x="269" y="306" type="line"/>
      <point x="286" y="384" type="line"/>
    </contour>
  </outline>
</glyph>
<glyph name="six.denominator" format="1">
  <advance width="412"/>
  <outline>
    <contour>
      <point x="145" y="-5" type="curve" smooth="yes"/>
      <point x="255" y="-5"/>
      <point x="352" y="72"/>
      <point x="352" y="163" type="curve" smooth="yes"/>
      <point x="352" y="230"/>
      <point x="298" y="281"/>
      <point x="211" y="281" type="curve" smooth="yes"/>
      <point x="172" y="281"/>
      <point x="123" y="267"/>
      <point x="98" y="241" type="curve"/>
      <point x="114" y="310"/>
      <point x="164" y="349"/>
      <point x="228" y="349" type="curve" smooth="yes"/>
      <point x="270" y="349"/>
      <point x="305" y="333"/>
      <point x="319" y="305" type="curve"/>
      <point x="377" y="360" type="line"/>
      <point x="354" y="402"/>
      <point x="306" y="425"/>
      <point x="248" y="425" type="curve" smooth="yes"/>
      <point x="105" y="425"/>
      <point x="7" y="303"/>
      <point x="7" y="142" type="curve" smooth="yes"/>
      <point x="7" y="49"/>
      <point x="58" y="-5"/>
    </contour>
    <contour>
      <point x="162" y="67" type="curve" smooth="yes"/>
      <point x="115" y="67"/>
      <point x="79" y="96"/>
      <point x="79" y="132" type="curve" smooth="yes"/>
      <point x="79" y="175"/>
      <point x="134" y="212"/>
      <point x="193" y="212" type="curve" smooth="yes"/>
      <point x="241" y="212"/>
      <point x="275" y="185"/>
      <point x="275" y="150" type="curve" smooth="yes"/>
      <point x="275" y="106"/>
      <point x="220" y="67"/>
    </contour>
  </outline>
</glyph>
<glyph name="three.numerator" format="1">
  <advance width="392"/>
  <outline>
    <contour>
      <point x="183" y="298" type="curve" smooth="yes"/>
      <point x="281" y="298"/>
      <point x="385" y="343"/>
      <point x="385" y="437" type="curve" smooth="yes"/>
      <point x="385" y="481"/>
      <point x="356" y="518"/>
      <point x="305" y="526" type="curve"/>
      <point x="374" y="539"/>
      <point x="417" y="576"/>
      <point x="417" y="631" type="curve" smooth="yes"/>
      <point x="417" y="688"/>
      <point x="360" y="731"/>
      <point x="276" y="731" type="curve" smooth="yes"/>
      <point x="212" y="731"/>
      <point x="143" y="710"/>
      <point x="106" y="672" type="curve"/>
      <point x="143" y="608" type="line"/>
      <point x="173" y="637"/>
      <point x="211" y="657"/>
      <point x="261" y="657" type="curve" smooth="yes"/>
      <point x="294" y="657"/>
      <point x="330" y="644"/>
      <point x="330" y="617" type="curve" smooth="yes"/>
      <point x="330" y="576"/>
      <point x="273" y="559"/>
      <point x="190" y="559" type="curve" smooth="yes"/>
      <point x="168" y="559" type="line"/>
      <point x="153" y="486" type="line"/>
      <point x="176" y="486" type="line" smooth="yes"/>
      <point x="257" y="486"/>
      <point x="306" y="470"/>
      <point x="306" y="436" type="curve" smooth="yes"/>
      <point x="306" y="399"/>
      <point x="255" y="379"/>
      <point x="198" y="379" type="curve" smooth="yes"/>
      <point x="129" y="379"/>
      <point x="100" y="418"/>
      <point x="98" y="436" type="curve"/>
      <point x="43" y="377" type="line"/>
      <point x="51" y="326"/>
      <point x="104" y="298"/>
    </contour>
  </outline>
</glyph>
<glyph name="w.alt" format="1">
  <advance width="833"/>
  <outline>
    <contour>
      <point x="114" y="0" type="line"/>
      <point x="258" y="0" type="line"/>
      <point x="417" y="316" type="line"/>
      <point x="436" y="0" type="line"/>
      <point x="586" y="0" type="line"/>
      <point x="868" y="524" type="line"/>
      <point x="730" y="524" type="line"/>
      <point x="542" y="160" type="line"/>
      <point x="525" y="524" type="line"/>
      <point x="398" y="524" type="line"/>
      <point x="226" y="160" type="line"/>
      <point x="192" y="524" type="line"/>
      <point x="54" y="524" type="line"/>
    </contour>
  </outline>
</glyph>
<glyph name="zero.denominator" format="1">
  <advance width="470"/>
  <outline>
    <contour>
      <point x="171" y="-5" type="curve" smooth="yes"/>
      <point x="313" y="-5"/>
      <point x="423" y="129"/>
      <point x="423" y="243" type="curve" smooth="yes"/>
      <point x="423" y="326"/>
      <point x="375" y="421"/>
      <point x="262" y="421" type="curve" smooth="yes"/>
      <point x="120" y="421"/>
      <point x="7" y="286"/>
      <point x="7" y="171" type="curve" smooth="yes"/>
      <point x="7" y="88"/>
      <point x="56" y="-5"/>
    </contour>
    <contour>
      <point x="187" y="74" type="curve" smooth="yes"/>
      <point x="119" y="74"/>
      <point x="90" y="129"/>
      <point x="90" y="182" type="curve" smooth="yes"/>
      <point x="90" y="246"/>
      <point x="147" y="342"/>
      <point x="244" y="342" type="curve" smooth="yes"/>
      <point x="311" y="342"/>
      <point x="341" y="287"/>
      <point x="341" y="233" type="curve" smooth="yes"/>
      <point x="341" y="169"/>
      <point x="284" y="74"/>
    </contour>
  </outline>
</glyph>
<glyph name="zero.numerator" format="1">
  <advance width="471"/>
  <outline>
    <contour>
      <point x="237" y="303" type="curve" smooth="yes"/>
      <point x="379" y="303"/>
      <point x="489" y="438"/>
      <point x="489" y="552" type="curve" smooth="yes"/>
      <point x="489" y="634"/>
      <point x="441" y="730"/>
      <point x="327" y="730" type="curve" smooth="yes"/>
      <point x="185" y="730"/>
      <point x="73" y="595"/>
      <point x="73" y="480" type="curve" smooth="yes"/>
      <point x="73" y="396"/>
      <point x="122" y="303"/>
    </contour>
    <contour>
      <point x="156" y="490" type="curve" smooth="yes"/>
      <point x="156" y="555"/>
      <point x="213" y="651"/>
      <point x="310" y="651" type="curve" smooth="yes"/>
      <point x="377" y="651"/>
      <point x="407" y="595"/>
      <point x="407" y="542" type="curve" smooth="yes"/>
      <point x="407" y="478"/>
      <point x="350" y="383"/>
      <point x="253" y="383" type="curve" smooth="yes"/>
      <point x="185" y="383"/>
      <point x="156" y="438"/>
    </contour>
  </outline>
</glyph>
